<svg width="16" height="16" viewBox="0 0 16 16" fill="none" xmlns="http://www.w3.org/2000/svg">
<path d="M8.06441 0.0110856C8.60686 0.0165587 8.75175 0.0275272 9.11715 0.088234C9.35009 0.127062 9.72611 0.206882 9.95211 0.264992C10.1781 0.323383 10.525 0.429696 10.7226 0.50132C10.9204 0.573021 11.238 0.711086 11.4287 0.807961C11.6193 0.904836 11.9135 1.06853 12.083 1.17222C12.2524 1.27563 12.4836 1.42618 12.5966 1.5062C12.7096 1.58594 12.9093 1.73712 13.04 1.84214C13.1708 1.94695 13.4381 2.19402 13.6337 2.39097C13.8294 2.58796 14.0809 2.86682 14.1923 3.01011C14.3038 3.15349 14.4883 3.41148 14.6025 3.58335C14.717 3.75534 14.8808 4.01868 14.9658 4.16929C15.051 4.31991 15.174 4.55132 15.2392 4.68394C15.3047 4.81658 15.4219 5.10398 15.5 5.32261C15.5778 5.54126 15.6927 5.92523 15.7548 6.17612C15.817 6.42681 15.8971 6.83418 15.9336 7.0814C15.9916 7.47505 16.0002 7.614 16 8.20152C16 8.81822 15.9936 8.91177 15.9238 9.35484C15.8822 9.61996 15.8075 10.0008 15.7587 10.2015C15.71 10.4021 15.6048 10.7544 15.5244 10.9837C15.444 11.2129 15.3054 11.5466 15.2168 11.7259C15.1284 11.905 14.9946 12.1575 14.9199 12.2865C14.8452 12.4154 14.7068 12.6383 14.6123 12.7816C14.5175 12.9249 14.3559 13.1541 14.2529 13.2904C14.1495 13.4267 13.8739 13.7316 13.6396 13.9691C13.4054 14.2065 13.0915 14.4948 12.9433 14.6097C12.7953 14.7248 12.5704 14.8889 12.4433 14.975C12.3162 15.0609 12.1076 15.1931 11.9804 15.2689C11.8534 15.3447 11.5996 15.4832 11.416 15.5765C11.2323 15.6698 10.9226 15.8036 10.7285 15.8734C10.5344 15.9432 10.3637 16.0003 10.3496 16.0003C10.3327 15.9949 10.3242 15.1876 10.3242 11.3099H5.67574V13.6546C5.67574 15.1948 5.66717 15.9943 5.65035 16.0003C5.63623 16.0003 5.46548 15.9432 5.27144 15.8734C5.07729 15.8036 4.76757 15.6698 4.58394 15.5765C4.40035 15.4832 4.14658 15.3447 4.01949 15.2689C3.89236 15.1931 3.67246 15.0523 3.53121 14.9564C3.38997 14.8602 3.16423 14.6964 3.03023 14.5912C2.89617 14.4859 2.62658 14.2401 2.43062 14.0462C2.23493 13.8521 1.9786 13.5763 1.86226 13.433C1.74589 13.2896 1.55241 13.0259 1.43258 12.847C1.31264 12.6677 1.15354 12.4155 1.07906 12.2865C1.00457 12.1574 0.871477 11.9049 0.783163 11.7259C0.694554 11.5466 0.555887 11.2129 0.475546 10.9837C0.395163 10.7544 0.285076 10.3845 0.231405 10.1625C0.177512 9.94047 0.102415 9.54818 0.0644132 9.29038C-0.00133313 8.84452 -0.00347681 8.78323 0.00679606 8.0648C0.0165532 7.39227 0.0250416 7.26639 0.0858976 6.91831C0.123408 6.70331 0.195945 6.35736 0.24703 6.14976C0.298397 5.94207 0.407089 5.58414 0.488241 5.35484C0.569378 5.1256 0.690754 4.8268 0.757773 4.69077C0.824803 4.55475 0.949852 4.31991 1.03512 4.16929C1.12039 4.01867 1.27811 3.76065 1.38668 3.59605C1.49531 3.43136 1.6807 3.17342 1.79781 3.0228C1.91524 2.87215 2.16829 2.59063 2.36031 2.39683C2.55227 2.20284 2.81892 1.95556 2.95309 1.84702C3.08701 1.73873 3.32407 1.5621 3.47945 1.45444C3.63464 1.34695 3.8659 1.1971 3.99312 1.12144C4.12018 1.04591 4.37171 0.908931 4.55172 0.817726C4.7317 0.726284 5.05273 0.586864 5.26461 0.508156C5.47649 0.429459 5.83224 0.318609 6.05465 0.262062C6.27707 0.205519 6.64989 0.130047 6.88277 0.0940934C7.11571 0.0581326 7.33561 0.0234596 7.37105 0.0169449C7.40753 0.0104674 7.71908 0.00744649 8.06441 0.0110856ZM7.97457 0.966164C7.43858 0.968248 7.27284 0.978436 6.97262 1.02769C6.77493 1.05999 6.4977 1.11328 6.35641 1.14585C6.2152 1.17841 5.90314 1.27498 5.66305 1.36069C5.4111 1.4506 5.05794 1.60372 4.82809 1.72202C4.60904 1.8346 4.3085 2.00774 4.16012 2.10777C4.01166 2.20759 3.76946 2.38897 3.62105 2.51011C3.47255 2.63137 3.17206 2.9165 2.95309 3.1439C2.73386 3.37131 2.44968 3.6975 2.32125 3.86948C2.19284 4.04147 2.02175 4.294 1.94137 4.43003C1.86102 4.56601 1.72145 4.82973 1.63082 5.01597C1.54018 5.20224 1.40684 5.52507 1.33492 5.73277C1.26282 5.94027 1.17052 6.25112 1.12887 6.42319C1.08726 6.59518 1.02343 6.9332 0.988241 7.17319C0.934638 7.53839 0.924511 7.70374 0.924765 8.18882C0.925278 8.66934 0.935644 8.84035 0.987265 9.18589C1.02142 9.41517 1.06818 9.69081 1.09078 9.79819C1.11338 9.90582 1.15875 10.0878 1.19137 10.2025C1.2243 10.3173 1.3065 10.5632 1.37398 10.7494C1.44153 10.9357 1.5636 11.2234 1.64449 11.388C1.7254 11.5527 1.85302 11.7933 1.92769 11.9222C2.00249 12.0513 2.14985 12.2741 2.25582 12.4173C2.36189 12.5607 2.53854 12.7835 2.64742 12.9125C2.75615 13.0415 2.96479 13.2644 3.11129 13.4076C3.25765 13.5511 3.48702 13.7572 3.62105 13.8656C3.75507 13.9739 3.95725 14.1274 4.07027 14.2064C4.18325 14.2851 4.32811 14.3805 4.39156 14.4183C4.455 14.4561 4.51626 14.4785 4.5273 14.4681C4.53826 14.4482 4.54709 13.5085 4.54684 12.3714L4.54586 10.2933H5.65035V8.26109L3.29976 8.26206L1.68258 6.61069L2.49508 5.79819L3.73629 7.06187H6.80562V10.2416H9.1943V7.06187H12.2636L13.5087 5.79819L14.3173 6.61753L12.7002 8.26011L10.3496 8.26109V10.2933H11.4541C11.453 13.4991 11.4584 14.4496 11.4658 14.4691C11.4732 14.4798 11.5564 14.4446 11.6494 14.391C11.7427 14.3372 11.9414 14.2003 12.0918 14.0873C12.2423 13.9742 12.4412 13.8162 12.5332 13.7357C12.6249 13.6551 12.808 13.4837 12.9404 13.3548C13.0726 13.2258 13.2633 13.0207 13.3642 12.8988C13.4651 12.7769 13.6353 12.5607 13.7421 12.4173C13.8487 12.274 14.0007 12.0448 14.0791 11.9085C14.1577 11.7722 14.2811 11.5407 14.3535 11.3939C14.4256 11.2469 14.5438 10.9657 14.6162 10.7689C14.6887 10.5722 14.77 10.3349 14.7968 10.2416C14.8235 10.1485 14.8696 9.96625 14.8984 9.83726C14.9274 9.70824 14.9785 9.41514 15.0127 9.18589C15.0643 8.83968 15.0749 8.66966 15.0752 8.18296C15.0754 7.684 15.0654 7.53212 15.0097 7.16636C14.974 6.93001 14.9144 6.60722 14.8779 6.44956C14.8417 6.29187 14.7486 5.98136 14.6718 5.75913C14.5948 5.53685 14.4551 5.19688 14.3603 5.00327C14.2659 4.80982 14.1309 4.55394 14.0605 4.43394C13.9904 4.31407 13.8225 4.06719 13.6884 3.88609C13.5543 3.70491 13.2825 3.38866 13.0849 3.18296C12.887 2.97692 12.61 2.70921 12.4687 2.58823C12.3275 2.46706 12.056 2.26215 11.8652 2.13316C11.6745 2.00427 11.3514 1.81316 11.1464 1.70835C10.9417 1.60341 10.5948 1.45311 10.3759 1.37437C10.1573 1.29546 9.85074 1.19911 9.69527 1.1605C9.53996 1.12195 9.2334 1.06235 9.01461 1.02769C8.66771 0.972974 8.53392 0.964344 7.97457 0.966164Z" fill="#666666"/>
<path d="M5.50345 3.86359C5.68091 3.40835 5.84579 2.98594 5.86968 2.92496L5.91308 2.81421H6.39796C6.66454 2.81421 6.88284 2.81708 6.88258 2.82072C6.88232 2.82437 6.86486 2.88587 6.8438 2.95753C6.82249 3.02919 6.80528 3.10242 6.80553 3.1204C6.80579 3.14594 7.06184 3.15297 8.00001 3.15297C8.93818 3.15297 9.19423 3.14594 9.19449 3.1204C9.19475 3.10242 9.17754 3.02919 9.15622 2.95753C9.13517 2.88587 9.1177 2.82437 9.11744 2.82072C9.11719 2.81708 9.33677 2.81421 10.0931 2.81421L10.1165 2.88587C10.1293 2.92522 10.2911 3.34737 10.476 3.82398C10.6609 4.30059 10.8122 4.69616 10.8122 4.70346C10.8122 4.71076 10.5436 4.71675 9.61799 4.71779L9.48958 4.2344H6.51045L6.38204 4.71779L5.78492 4.71701C5.45645 4.71675 5.18627 4.71076 5.18422 4.70398C5.18216 4.69695 5.32598 4.31883 5.50345 3.86359Z" fill="#666666"/>
<path d="M2.92188 5.38098L3.27475 5.00965C3.46891 4.80535 3.64354 4.63831 3.66306 4.63831C3.68232 4.63831 3.86287 4.81369 4.43019 5.41799L11.5698 5.41773L11.8909 5.07688C12.0673 4.88926 12.2437 4.71388 12.3531 4.63831L13.0735 5.38098L12.0064 6.46268H3.99359L2.92188 5.38098Z" fill="#666666"/>
</svg>
