<svg width="16" height="16" viewBox="0 0 16 16" fill="none" xmlns="http://www.w3.org/2000/svg">
<path d="M15.616 1.08407C14.6889 0.928813 13.7504 0.851992 12.8104 0.854425C10.8292 0.854425 9.20753 1.1989 7.98683 1.87843C6.55812 1.15843 4.91483 0.794189 3.09647 0.794189C1.51435 0.794189 0.399059 1.07843 0.352941 1.09066L0 1.1829L0.000941176 14.2709L0.588235 14.1194C0.598588 14.1175 1.64235 13.853 3.09647 13.853C4.45835 13.853 5.70447 14.0789 6.82353 14.5147V15.2939H9.17647V14.4883C10.3821 14.029 11.7619 13.9133 12.8094 13.9133C14.2795 13.9133 15.4315 14.125 15.4428 14.1269L16 14.2305V1.15654L15.616 1.08407ZM0.941176 13.0888V1.92831C1.65235 1.79932 2.37369 1.73475 3.09647 1.73537C4.75388 1.73537 6.23905 2.07419 7.52941 2.71796V13.8013C6.20895 13.2205 4.72753 12.9118 3.09647 12.9118C2.18447 12.9118 1.42776 13.0069 0.941176 13.0888ZM15.0588 13.118C14.3128 13.022 13.5615 12.9736 12.8094 12.973C11.0701 12.973 9.62729 13.2535 8.47059 13.7778V2.69725C9.80895 1.96313 11.5492 1.7956 12.8094 1.7956C13.7723 1.7956 14.5995 1.88689 15.0588 1.94996V13.118Z" fill="#666666"/>
</svg>
