<svg width="19" height="20" viewBox="0 0 19 20" fill="none" xmlns="http://www.w3.org/2000/svg">
<path d="M4.07122 1.33337L1.35693 4.88893V17.3334C1.35693 17.8048 1.54759 18.2571 1.88693 18.5904C2.22628 18.9239 2.68654 19.1111 3.16645 19.1111H15.8332C16.3131 19.1111 16.7733 18.9239 17.1127 18.5904C17.452 18.2571 17.6426 17.8048 17.6426 17.3334V4.88893L14.9284 1.33337H4.07122Z" stroke="#333333" stroke-linecap="round" stroke-linejoin="round"/>
<path d="M1.35693 4.88904H17.6426" stroke="#333333" stroke-linecap="round" stroke-linejoin="round"/>
<path d="M13.1199 8.44434C13.1199 9.38734 12.7387 10.2917 12.0599 10.9585C11.3812 11.6253 10.4607 11.9999 9.50089 11.9999C8.54106 11.9999 7.62054 11.6253 6.94183 10.9585C6.26314 10.2917 5.88184 9.38734 5.88184 8.44434" stroke="#333333" stroke-linecap="round" stroke-linejoin="round"/>
</svg>
