<svg width="36" height="36" viewBox="0 0 36 36" fill="none" xmlns="http://www.w3.org/2000/svg">
<rect x="0.5" y="0.5" width="35" height="35" rx="17.5" stroke="#00B346"/>
<rect x="8" y="8" width="20" height="20" rx="10" fill="white"/>
<path fill-rule="evenodd" clip-rule="evenodd" d="M8 6.89026C8 6.89026 8.69179 9.75156 13.0312 10.3647C17.3705 10.9778 18.6441 11.4337 19.3987 12.8801V24.3723C19.3987 24.3723 19.1706 22.8162 12.2922 22.077C8.92766 21.7154 8.0314 18.9328 8.0314 18.9328L8 6.89026Z" fill="#14A64E"/>
<path fill-rule="evenodd" clip-rule="evenodd" d="M20.7886 18.05C20.7886 18.05 21.2262 19.8602 23.9715 20.2481C26.7167 20.636 27.5224 20.9244 27.9998 21.8394V29.1098C27.9998 29.1098 27.8555 28.1253 23.504 27.6577C21.3754 27.429 20.8084 25.6685 20.8084 25.6685L20.7886 18.05Z" fill="#F59322"/>
</svg>
