<svg xmlns="http://www.w3.org/2000/svg" viewBox="0 0 290 290" shape-rendering="crispEdges"><rect width="290" height="290" fill="#fff"/><defs><pattern id="p" width="20" height="20" patternUnits="userSpaceOnUse"><path d="M0 0h10v10H0zm10 10h10v10H10z"/></pattern></defs><rect x="20" y="20" width="250" height="250" fill="url(#p)"/><g fill="#fff"><path d="M12 12h88v88H12zm178 0h88v88h-88zM12 190h88v88H12z"/></g><path d="M20 20h70v70H20zm10 10v50h50V30zm10 10h30v30H40zm160-20h70v70h-70zm10 10v50h50V30zm10 10h30v30h-30zM20 200h70v70H20zm10 10v50h50v-50zm10 10h30v30H40zm70-190h20v10h20v20h-10v20h20v20h-30V80h-20V60h10V50h-10zm50 80h30v20h-10v20h20v20h-30v-10h-20v-20h10zm-50 30h20v20h20v20h-10v20h-30v-10h10v-20h-20v-20h10zm100 0h60v10h-20v20h20v20h-30v-10h-20v20h-20v-30h10zm-80 80h20v-20h20v20h20v20h-10v30h-20v-20h-20v20h-30v-20h20z"/><g transform="translate(126 126)"><path fill="#12ad55" d="M0 0h18v38H0zM18 8h18v30H18z"/><path fill="#ff8a00" d="M18 20h18v18H18z"/></g></svg>