<svg width="18" height="20" viewBox="0 0 18 20" fill="none" xmlns="http://www.w3.org/2000/svg">
<path d="M9 8.75C8.33249 8.75 7.67997 8.53006 7.12495 8.11801C6.56993 7.70596 6.13736 7.12029 5.8819 6.43506C5.62646 5.74984 5.55962 4.99584 5.68985 4.26841C5.82007 3.54099 6.14151 2.8728 6.61351 2.34835C7.08552 1.8239 7.68689 1.46675 8.34157 1.32206C8.99625 1.17736 9.67485 1.25162 10.2916 1.53545C10.9083 1.81929 11.4354 2.29992 11.8062 2.91661C12.1771 3.5333 12.375 4.25832 12.375 5C12.375 5.99456 12.0194 6.94839 11.3865 7.65165C10.7535 8.35491 9.8951 8.75 9 8.75ZM9 2.5C8.55499 2.5 8.11998 2.64662 7.74997 2.92132C7.37995 3.19602 7.09157 3.58647 6.92127 4.04329C6.75098 4.50011 6.70642 5.00277 6.79323 5.48772C6.88005 5.97267 7.09434 6.41814 7.40901 6.76777C7.72367 7.1174 8.12459 7.3555 8.56105 7.45196C8.9975 7.54842 9.44991 7.49892 9.86104 7.3097C10.2722 7.12049 10.6236 6.80005 10.8708 6.38892C11.118 5.9778 11.25 5.49445 11.25 5C11.25 4.33696 11.0129 3.70107 10.591 3.23224C10.169 2.7634 9.59673 2.5 9 2.5Z" fill="#333333"/>
<path d="M14.625 17.5H3.375C3.07663 17.5 2.79048 17.3682 2.5795 17.1339C2.36853 16.8995 2.25 16.5815 2.25 16.25V13.125C2.25 12.9593 2.30927 12.8003 2.41476 12.683C2.52024 12.5659 2.66331 12.5 2.8125 12.5C2.96169 12.5 3.10476 12.5659 3.21024 12.683C3.31573 12.8003 3.375 12.9593 3.375 13.125V16.25H14.625V13.125C14.625 12.9593 14.6843 12.8003 14.7897 12.683C14.8952 12.5659 15.0383 12.5 15.1875 12.5C15.3367 12.5 15.4798 12.5659 15.5853 12.683C15.6907 12.8003 15.75 12.9593 15.75 13.125V16.25C15.75 16.5815 15.6314 16.8995 15.4205 17.1339C15.2095 17.3682 14.9234 17.5 14.625 17.5Z" fill="#333333"/>
<path d="M15.1874 13.7498C15.0554 13.7497 14.9274 13.6979 14.8263 13.6036C13.1945 12.0805 11.1316 11.2456 9.00049 11.2456C6.86935 11.2456 4.80646 12.0805 3.17468 13.6036C3.11801 13.6564 3.05256 13.6962 2.98203 13.7209C2.91152 13.7456 2.83731 13.7546 2.76366 13.7474C2.69002 13.7402 2.61837 13.7169 2.5528 13.6789C2.48724 13.6411 2.42905 13.5891 2.38155 13.5261C2.33406 13.4632 2.29818 13.3904 2.27597 13.3121C2.25378 13.2337 2.24569 13.1513 2.25217 13.0694C2.25864 12.9876 2.27956 12.9079 2.31373 12.8352C2.34789 12.7623 2.39464 12.6977 2.4513 12.6448C4.28573 10.9327 6.60475 9.99414 9.00049 9.99414C11.3962 9.99414 13.7153 10.9327 15.5497 12.6448C15.6386 12.7272 15.7025 12.8381 15.7326 12.9623C15.7626 13.0864 15.7576 13.2179 15.718 13.3388C15.6784 13.4596 15.6062 13.5639 15.5112 13.6376C15.4163 13.7111 15.3032 13.7503 15.1874 13.7498Z" fill="#333333"/>
</svg>
