<svg width="28" height="28" viewBox="0 0 28 28" fill="none" xmlns="http://www.w3.org/2000/svg">
<path d="M27.7345 15.123C27.9095 14.7752 28.0006 14.3913 28.0006 14.0019C28.0006 13.6126 27.9095 13.2287 27.7345 12.8808L27.3676 12.154C27.2888 11.9969 27.2615 11.819 27.2894 11.6455L27.4135 10.841C27.4726 10.4561 27.4407 10.0628 27.3205 9.69241C27.2003 9.32205 26.995 8.98498 26.7212 8.70819L26.1475 8.13014C26.0231 8.00518 25.941 7.84431 25.9129 7.67022L25.7827 6.86631C25.7204 6.48673 25.5712 6.12669 25.3467 5.8143C25.1223 5.50191 24.8287 5.24562 24.4888 5.06545L23.7812 4.65092C23.7675 4.64272 23.7538 4.63506 23.7396 4.62795C23.5826 4.54746 23.4548 4.41968 23.3743 4.26264L23.0024 3.53858C22.6513 2.85663 21.9355 2.35405 21.1343 2.22225L20.3309 2.09209C20.1568 2.06397 19.996 1.98191 19.871 1.85748L19.293 1.28381C19.0161 1.01009 18.679 0.804919 18.3087 0.684705C17.9383 0.56449 17.545 0.532561 17.1601 0.591469L16.3573 0.713422C16.183 0.740939 16.0044 0.712609 15.8471 0.632485L15.1208 0.266079C14.773 0.0911229 14.3891 0 13.9998 0C13.6104 0 13.2265 0.0911229 12.8787 0.266079L12.1524 0.632485C11.9955 0.712414 11.8173 0.74074 11.6433 0.713422L10.8388 0.589282C10.4539 0.530243 10.0606 0.56211 9.69024 0.682331C9.31989 0.802553 8.98282 1.00779 8.706 1.28163L8.12959 1.85748C8.00463 1.98191 7.84376 2.06397 7.66967 2.09209L6.86577 2.22225C6.06514 2.35405 5.34928 2.85663 4.99819 3.53913L4.62631 4.26319C4.54552 4.42001 4.41782 4.54771 4.261 4.6285L3.53694 5.00038C2.85444 5.35147 2.35186 6.06733 2.22006 6.8685L2.08936 7.67186C2.06149 7.84603 1.97939 8.00697 1.85475 8.13178L1.28163 8.70983C1.00779 8.98665 0.802553 9.32372 0.682331 9.69407C0.56211 10.0644 0.530243 10.4578 0.589282 10.8426L0.711235 11.6455C0.738688 11.8196 0.710558 11.9979 0.630844 12.1551L0.266079 12.8819C0.0911229 13.2298 0 13.6137 0 14.003C0 14.3924 0.0911229 14.7763 0.266079 15.1241L0.633032 15.8504C0.711741 16.0077 0.739094 16.1858 0.711235 16.3595L0.587094 17.164C0.528099 17.5488 0.559987 17.9422 0.680206 18.3125C0.800425 18.6829 1.00564 19.0199 1.27944 19.2968L1.85311 19.8748C1.97754 19.9998 2.0596 20.1607 2.08772 20.3348L2.21788 21.1381C2.34748 21.9393 2.85225 22.6551 3.53475 23.0062L4.25881 23.3781C4.41585 23.4586 4.54363 23.5864 4.62413 23.7434L4.996 24.4675C5.34709 25.15 6.06295 25.6548 6.86413 25.7844L7.66748 25.9151C7.84152 25.943 8.00239 26.0249 8.12741 26.1491L8.70545 26.7228C8.98237 26.9965 9.31945 27.2016 9.68977 27.3218C10.0601 27.4421 10.4534 27.474 10.8383 27.4151L11.6433 27.2915C11.8176 27.2641 11.9961 27.2923 12.1535 27.3719L12.8798 27.7389C13.2276 27.9138 13.6115 28.005 14.0008 28.005C14.3902 28.005 14.7741 27.9138 15.1219 27.7389L15.8482 27.3719C16.0053 27.2925 16.1834 27.2644 16.3573 27.2915L17.1618 27.4157C17.5466 27.4746 17.94 27.4426 18.3103 27.3224C18.6806 27.2022 19.0177 26.997 19.2946 26.7233L19.8726 26.1497C19.9976 26.0252 20.1585 25.9432 20.3326 25.9151L21.1359 25.7849C21.5156 25.7227 21.8757 25.5736 22.1881 25.3491C22.5005 25.1247 22.7567 24.831 22.9368 24.491L23.353 23.7855C23.3612 23.7719 23.3688 23.7582 23.3759 23.744C23.4561 23.5867 23.584 23.4588 23.7412 23.3787L24.4648 23.0062C24.8106 22.8278 25.1098 22.5709 25.3386 22.2561C25.5673 21.9413 25.7193 21.5774 25.7822 21.1933L25.9123 20.39C25.9405 20.2159 26.0225 20.055 26.1469 19.9301C26.1557 19.9213 26.7348 19.2831 26.7348 19.2831C27.0037 19.0066 27.2049 18.6716 27.3225 18.3043C27.4402 17.937 27.4711 17.5474 27.413 17.1662L27.2894 16.3595C27.2619 16.1852 27.2901 16.0067 27.3698 15.8493L27.7345 15.123Z" fill="url(#paint0_linear_11814_50205)"/>
<path d="M14.001 4.10413C8.56613 4.10413 4.10254 8.56881 4.10254 14.0026C4.10254 19.4363 8.56777 23.901 14.001 23.901C19.4342 23.901 23.8994 19.4358 23.8994 14.0026C23.8994 8.56936 19.4347 4.10413 14.001 4.10413ZM19.7191 11.7401L18.0785 18.3026C18.0342 18.4803 17.9317 18.638 17.7874 18.7507C17.6431 18.8633 17.4653 18.9245 17.2822 18.9244H10.7197C10.5367 18.9245 10.3588 18.8633 10.2145 18.7507C10.0702 18.638 9.96778 18.4803 9.92348 18.3026L8.28285 11.7401C8.23622 11.5529 8.25706 11.3553 8.3417 11.1819C8.42635 11.0086 8.56938 10.8706 8.74568 10.7922C8.92197 10.7139 9.12024 10.7002 9.30564 10.7535C9.49104 10.8069 9.65171 10.9238 9.75941 11.0839C9.98363 11.412 10.7985 12.3619 11.5395 12.3619C11.6751 12.3619 12.0962 12.0458 12.5299 11.068C12.9193 10.1908 13.1807 9.06264 13.1807 8.26038C13.1807 8.04282 13.2671 7.83417 13.4209 7.68033C13.5748 7.52649 13.7834 7.44006 14.001 7.44006C14.2185 7.44006 14.4272 7.52649 14.581 7.68033C14.7349 7.83417 14.8213 8.04282 14.8213 8.26038C14.8213 9.06319 15.0827 10.1914 15.4715 11.0686C15.9052 12.0458 16.3263 12.3619 16.4619 12.3619C17.2275 12.3619 18.061 11.354 18.242 11.0839C18.3497 10.9238 18.5104 10.8069 18.6958 10.7535C18.8812 10.7002 19.0794 10.7139 19.2557 10.7922C19.432 10.8706 19.5751 11.0086 19.6597 11.1819C19.7444 11.3553 19.7652 11.5529 19.7186 11.7401H19.7191Z" fill="url(#paint1_linear_11814_50205)"/>
<defs>
<linearGradient id="paint0_linear_11814_50205" x1="13.9992" y1="28.0025" x2="13.9992" y2="0.0052199" gradientUnits="userSpaceOnUse">
<stop stop-color="#FD5900"/>
<stop offset="1" stop-color="#FFDE00"/>
</linearGradient>
<linearGradient id="paint1_linear_11814_50205" x1="13.9999" y1="23.9026" x2="13.9999" y2="4.10577" gradientUnits="userSpaceOnUse">
<stop stop-color="#FFE59A"/>
<stop offset="1" stop-color="#FFFFD5"/>
</linearGradient>
</defs>
</svg>
