<svg width="548" height="161" viewBox="0 0 548 161" fill="none" xmlns="http://www.w3.org/2000/svg">
<path d="M73.8409 112.6V135.873H70.6136L58.7841 118.804H58.5682V135.873H55.0568V112.6H58.3068L70.1477 129.691H70.3636V112.6H73.8409ZM77.3631 135.873V112.6H80.8744V122.713H92.4767V112.6H95.9994V135.873H92.4767V125.725H80.8744V135.873H77.3631ZM101.479 135.873H97.7517L106.127 112.6H110.184L118.559 135.873H114.831L108.252 116.827H108.07L101.479 135.873ZM102.104 126.759H114.195V129.713H102.104V126.759ZM106.831 110.27L103.32 105.032H106.899L109.547 110.27H106.831ZM129.631 112.6L135.199 121.702H135.381L140.949 112.6H145.018L137.768 124.236L145.063 135.873H140.972L135.381 126.895H135.199L129.609 135.873H125.518L132.938 124.236L125.563 112.6H129.631ZM161.866 112.6H165.389V127.907C165.389 129.535 165.007 130.979 164.241 132.236C163.476 133.486 162.401 134.471 161.014 135.191C159.628 135.903 158.003 136.259 156.139 136.259C154.283 136.259 152.662 135.903 151.276 135.191C149.889 134.471 148.813 133.486 148.048 132.236C147.283 130.979 146.901 129.535 146.901 127.907V112.6H150.412V127.623C150.412 128.676 150.643 129.611 151.105 130.429C151.575 131.248 152.238 131.891 153.094 132.361C153.95 132.823 154.965 133.054 156.139 133.054C157.321 133.054 158.34 132.823 159.196 132.361C160.06 131.891 160.719 131.248 161.173 130.429C161.635 129.611 161.866 128.676 161.866 127.623V112.6ZM170.86 135.873H167.133L175.508 112.6H179.565L187.94 135.873H184.213L177.633 116.827H177.451L170.86 135.873ZM171.485 126.759H183.576V129.713H171.485V126.759ZM171.656 110.509L176.269 106.566H178.803L183.428 110.509H180.088L177.565 108.259L175.019 110.509H171.656ZM182.213 107.986L184.588 103.838H188.053L184.701 107.986H182.213ZM185.803 115.623V112.6H203.814V115.623H196.553V135.873H193.053V115.623H185.803ZM213.063 135.873V112.6H221.586C223.237 112.6 224.605 112.873 225.688 113.418C226.771 113.956 227.582 114.687 228.12 115.611C228.658 116.528 228.927 117.562 228.927 118.713C228.927 119.683 228.749 120.501 228.393 121.168C228.037 121.827 227.559 122.357 226.961 122.759C226.37 123.153 225.718 123.441 225.006 123.623V123.85C225.779 123.888 226.533 124.138 227.268 124.6C228.01 125.054 228.624 125.702 229.109 126.543C229.593 127.384 229.836 128.407 229.836 129.611C229.836 130.801 229.555 131.869 228.995 132.816C228.442 133.755 227.586 134.501 226.427 135.054C225.268 135.6 223.787 135.873 221.984 135.873H213.063ZM216.574 132.861H221.643C223.324 132.861 224.529 132.535 225.256 131.884C225.984 131.232 226.347 130.418 226.347 129.441C226.347 128.706 226.162 128.032 225.79 127.418C225.419 126.804 224.889 126.316 224.199 125.952C223.518 125.588 222.707 125.407 221.768 125.407H216.574V132.861ZM216.574 122.668H221.279C222.067 122.668 222.775 122.516 223.404 122.213C224.04 121.91 224.544 121.486 224.915 120.941C225.294 120.388 225.484 119.736 225.484 118.986C225.484 118.024 225.146 117.217 224.472 116.566C223.798 115.914 222.764 115.588 221.37 115.588H216.574V122.668ZM234.366 135.873H230.639L239.014 112.6H243.071L251.446 135.873H247.719L241.139 116.827H240.957L234.366 135.873ZM234.991 126.759H247.082V129.713H234.991V126.759ZM242.435 110.191H239.753L239.662 107.873C240.465 107.835 241.033 107.729 241.366 107.554C241.7 107.373 241.863 107.111 241.855 106.77C241.863 106.361 241.632 106.07 241.162 105.895C240.7 105.721 240.135 105.634 239.469 105.634L239.571 103.759C241.291 103.759 242.594 104.032 243.48 104.577C244.374 105.123 244.817 105.857 244.81 106.782C244.817 107.532 244.571 108.085 244.071 108.441C243.579 108.789 243.033 109.009 242.435 109.1V110.191ZM271.991 112.6V135.873H268.764L256.934 118.804H256.718V135.873H253.207V112.6H256.457L268.298 129.691H268.514V112.6H271.991ZM282.382 135.873V112.6H290.677C292.488 112.6 293.988 112.929 295.177 113.588C296.367 114.248 297.257 115.149 297.848 116.293C298.439 117.429 298.734 118.71 298.734 120.134C298.734 121.566 298.435 122.854 297.836 123.998C297.245 125.134 296.352 126.035 295.155 126.702C293.965 127.361 292.469 127.691 290.666 127.691H284.961V124.713H290.348C291.492 124.713 292.42 124.516 293.132 124.123C293.844 123.721 294.367 123.176 294.7 122.486C295.033 121.797 295.2 121.013 295.2 120.134C295.2 119.255 295.033 118.475 294.7 117.793C294.367 117.111 293.84 116.577 293.12 116.191C292.408 115.804 291.469 115.611 290.302 115.611H285.893V135.873H282.382ZM301.251 135.873V112.6H304.762V122.713H316.364V112.6H319.887V135.873H316.364V125.725H304.762V135.873H301.251ZM338.366 112.6H341.889V127.907C341.889 129.535 341.507 130.979 340.741 132.236C339.976 133.486 338.901 134.471 337.514 135.191C336.128 135.903 334.503 136.259 332.639 136.259C330.783 136.259 329.162 135.903 327.776 135.191C326.389 134.471 325.313 133.486 324.548 132.236C323.783 130.979 323.401 129.535 323.401 127.907V112.6H326.912V127.623C326.912 128.676 327.143 129.611 327.605 130.429C328.075 131.248 328.738 131.891 329.594 132.361C330.45 132.823 331.465 133.054 332.639 133.054C333.821 133.054 334.84 132.823 335.696 132.361C336.56 131.891 337.219 131.248 337.673 130.429C338.135 129.611 338.366 128.676 338.366 127.623V112.6ZM332.639 142.123C332.056 142.123 331.552 141.926 331.128 141.532C330.704 141.138 330.491 140.66 330.491 140.1C330.491 139.539 330.704 139.062 331.128 138.668C331.552 138.274 332.056 138.077 332.639 138.077C333.23 138.077 333.734 138.274 334.151 138.668C334.575 139.062 334.787 139.539 334.787 140.1C334.787 140.66 334.575 141.138 334.151 141.532C333.734 141.926 333.23 142.123 332.639 142.123ZM371.047 112.6V135.873H367.82L355.99 118.804H355.774V135.873H352.263V112.6H355.513L367.354 129.691H367.57V112.6H371.047ZM395.535 111.384H398.342C398.342 112.891 398.122 114.164 397.683 115.202C397.251 116.24 396.539 117.032 395.547 117.577C394.562 118.115 393.24 118.384 391.581 118.384V116.043C392.672 116.043 393.501 115.865 394.069 115.509C394.645 115.145 395.031 114.619 395.228 113.929C395.433 113.232 395.535 112.384 395.535 111.384ZM389.535 112.6H393.058V127.907C393.058 129.535 392.675 130.979 391.91 132.236C391.145 133.486 390.069 134.471 388.683 135.191C387.297 135.903 385.672 136.259 383.808 136.259C381.952 136.259 380.331 135.903 378.944 135.191C377.558 134.471 376.482 133.486 375.717 132.236C374.952 130.979 374.569 129.535 374.569 127.907V112.6H378.081V127.623C378.081 128.676 378.312 129.611 378.774 130.429C379.244 131.248 379.906 131.891 380.763 132.361C381.619 132.823 382.634 133.054 383.808 133.054C384.99 133.054 386.009 132.823 386.865 132.361C387.728 131.891 388.388 131.248 388.842 130.429C389.304 129.611 389.535 128.676 389.535 127.623V112.6ZM380.388 110.486L378.103 110.418C378.103 109.16 378.441 108.157 379.115 107.407C379.797 106.657 380.638 106.282 381.638 106.282C382.1 106.282 382.505 106.361 382.853 106.52C383.202 106.672 383.528 106.85 383.831 107.054C384.141 107.251 384.448 107.429 384.751 107.588C385.062 107.74 385.406 107.816 385.785 107.816C386.225 107.816 386.581 107.649 386.853 107.316C387.134 106.982 387.274 106.57 387.274 106.077L389.513 106.225C389.513 107.49 389.172 108.486 388.49 109.213C387.808 109.933 386.971 110.297 385.978 110.304C385.441 110.304 384.994 110.229 384.638 110.077C384.289 109.918 383.978 109.74 383.706 109.543C383.433 109.338 383.153 109.157 382.865 108.998C382.577 108.838 382.232 108.759 381.831 108.759C381.406 108.759 381.058 108.926 380.785 109.259C380.52 109.585 380.388 109.994 380.388 110.486ZM409.622 112.6L416.099 131.554H416.361L422.838 112.6H426.634L418.259 135.873H414.202L405.827 112.6H409.622ZM431.906 112.6V135.873H428.394V112.6H431.906ZM435.419 135.873V112.6H450.01V115.623H438.931V122.713H449.249V125.725H438.931V132.85H450.147V135.873H435.419ZM445.044 110.509L442.715 107.463L440.374 110.509H437.306V110.338L441.294 105.52H444.124L448.124 110.338V110.509H445.044ZM442.522 141.895C441.938 141.895 441.434 141.698 441.01 141.304C440.586 140.91 440.374 140.433 440.374 139.873C440.374 139.312 440.586 138.835 441.01 138.441C441.434 138.047 441.938 137.85 442.522 137.85C443.112 137.85 443.616 138.047 444.033 138.441C444.457 138.835 444.669 139.312 444.669 139.873C444.669 140.433 444.457 140.91 444.033 141.304C443.616 141.698 443.112 141.895 442.522 141.895ZM451.953 115.623V112.6H469.964V115.623H462.703V135.873H459.203V115.623H451.953ZM497.997 112.6V135.873H494.77L482.94 118.804H482.724V135.873H479.213V112.6H482.463L494.304 129.691H494.52V112.6H497.997ZM503.485 135.873H499.758L508.133 112.6H512.19L520.565 135.873H516.837L510.258 116.827H510.076L503.485 135.873ZM504.11 126.759H516.201V129.713H504.11V126.759ZM522.326 112.6H526.587L533.996 130.691H534.269L541.678 112.6H545.939V135.873H542.598V119.032H542.382L535.519 135.838H532.746L525.882 119.02H525.666V135.873H522.326V112.6Z" fill="#EA262A"/>
<path d="M67.9219 27.2554C69.4844 29.8335 70.2656 32.6069 70.3047 35.6147C70.3438 38.5835 69.9531 41.4741 69.0547 44.2866C68.3906 46.5132 67.2969 48.6226 65.7734 50.6929C64.2891 52.7632 62.2969 53.9741 59.8359 54.3257C58.7812 54.4429 57.9219 53.7788 57.8047 52.7241C57.7656 51.5913 58.7031 50.6929 59.8359 50.8491C61.5156 51.0054 63 49.9116 64.1328 48.6616C66.3203 46.0835 67.7266 43.1147 68.3906 39.7163C69.25 35.5757 68.8984 31.9819 67.3359 28.896C65.7734 25.8101 62.8047 23.8569 58.4688 23.0757C58.1953 23.0366 57.9219 22.9976 57.6484 22.9976C57.6094 22.9585 57.5312 22.9585 57.4531 22.9585H57.2188C56.9453 22.9194 56.7109 22.9194 56.4375 22.9194C53 22.9585 49.6797 23.6616 46.5156 25.1069C41.2812 27.4507 36.2031 30.771 31.3203 35.0288C26.4375 39.2866 22.0234 44.0132 18 49.2085C13.9766 54.4038 10.6953 59.521 8.07812 64.5991C6.39844 67.7632 5.03125 71.2788 3.97656 75.1851C2.92188 79.0913 2.76562 82.8413 3.50781 86.396C4.25 89.9507 6.51562 92.7632 10.2266 94.8726C19.7188 100.068 30.8906 94.5991 38 87.7241C40.1875 85.6147 42.1797 83.2319 43.9766 80.5366C45.8125 77.8413 47.0234 75.0288 47.6484 72.021C47.7266 71.9429 47.4531 71.9429 47.3359 71.9429C45.3828 72.8804 43.3906 73.7397 41.3984 74.521C36.7109 76.3569 31.75 77.8413 26.7109 77.8804C24.6797 77.8413 22.2969 77.3335 21.3203 75.4194C21.2812 75.3804 21.2812 75.3022 21.2422 75.2632V75.2241C21.1641 75.0679 21.125 74.9116 21.0859 74.7163C20.8516 72.9585 21.3984 71.3569 22.7656 69.9507C24.1328 68.5054 25.5 67.4116 26.9062 66.5913C31.7891 63.5835 40.5 60.7319 45.6562 64.2085C47.6484 65.6538 48.625 67.5679 48.6641 69.9897V70.1851V70.2632C49.2891 69.9116 49.9141 69.5601 50.5391 69.1694C51.0859 68.8569 51.5938 68.4663 52.1016 68.0366C52.2188 67.9585 52.2969 67.8413 52.3359 67.7241C52.9219 66.6694 53.5078 65.6538 54.1719 64.5991L54.4844 64.2866C56.5938 62.4116 59.5234 65.0679 57.6875 67.2944C56.5547 68.7397 55.4609 70.2241 54.4453 71.8257C54.3281 72.021 54.2109 72.1772 54.0938 72.3726C46.0078 85.1851 38.7812 98.5835 31.9062 112.06C26.0078 123.623 20.4219 135.38 15.8516 147.529C15.1094 149.56 14.4062 151.591 13.7812 153.662C13.5078 154.677 13.2344 155.693 13.0391 156.708V156.865C12.9609 157.255 13.0781 157.607 13.3516 157.88C14.0938 158.623 14.0547 159.755 12.9219 160.341C11.9844 160.693 10.8906 160.419 10.4219 159.482C10.2656 159.091 10.1875 158.779 10.1875 158.583C10.1484 157.763 10.2656 156.943 10.5391 156.162V156.123C10.8516 154.99 11.2031 153.935 11.6328 152.919C14.7969 145.224 18.2344 137.646 21.8672 130.185C22.9609 127.88 24.0547 125.537 25.1484 123.232C25.5781 122.333 26.0078 121.474 26.4375 120.576C34.3672 103.779 42.5312 87.0991 50.8516 70.5366C50.9297 70.3804 51.0078 70.2241 51.0859 70.1069C51.125 70.0679 51.125 70.0288 51.125 69.9897C51.125 70.0288 51.125 70.0288 51.0859 70.0288C51.0859 70.0679 51.0859 70.0679 51.0469 70.0679C50.4219 70.4194 49.7969 70.7319 49.1328 71.0835C48.7812 71.2788 48.5859 71.5522 48.5078 71.9429C47.9219 75.0288 46.7109 78.0366 44.7969 80.9272C42.9219 83.8179 40.8906 86.3569 38.7422 88.5054C31.3594 96.0054 19.5625 101.904 9.28906 96.7866C5.69531 95.0679 3.11719 92.3726 1.59375 88.7007C1.47656 88.4272 1.35938 88.1147 1.24219 87.8022C1.24219 87.7632 1.24219 87.6851 1.20312 87.646C0.851562 86.5522 0.617188 85.4585 0.460938 84.3257C0.421875 84.0522 0.421875 83.7397 0.382812 83.4663C0.382812 83.3882 0.382812 83.3101 0.34375 83.1929V82.9194C0.304688 82.646 0.304688 82.3335 0.304688 82.0601C0.304688 76.1616 1.98438 69.8335 5.30469 63.1147C8.625 56.396 13 49.9897 18.4297 43.8569C23.8594 37.7241 29.7188 32.6069 36.0078 28.5444C42.2969 24.4429 48.4297 22.0991 54.3281 21.5132C55.0703 21.4741 55.7734 21.4351 56.5156 21.4741C56.7891 21.4741 57.0625 21.4741 57.3359 21.5132C57.4141 21.5132 57.4922 21.5132 57.6094 21.5522C61.6719 21.9038 65.6172 23.8179 67.9219 27.2554ZM41.0078 73.5054C43.1562 72.8413 45.1875 72.021 47.1797 71.0444C47.6094 70.8101 47.8047 70.4585 47.8047 69.9897C47.8047 69.3257 47.6875 68.7007 47.4922 68.0757C46.75 66.1226 45.3438 64.8726 43.3125 64.2866C39.3672 63.3491 35.1875 64.5601 31.5547 66.2788C29.0938 67.4116 26.8672 68.9351 24.9531 70.8491C24.0547 71.7476 23.1172 72.9585 23.2734 74.2085C23.2734 74.2476 23.2734 74.2476 23.3125 74.2476V74.2866V74.3257C23.3516 74.3647 23.3516 74.3647 23.3516 74.4038L23.3906 74.4819C23.3906 74.521 23.3906 74.5601 23.4297 74.5991L23.5859 74.7554C23.8594 75.0288 24.3281 75.2632 24.9531 75.4194C26.2031 75.6929 27.4922 75.8101 28.8203 75.7319C32.9609 75.5366 37.0234 74.7944 41.0078 73.5054ZM72.2578 78.4663C72.6484 78.1538 73.1172 78.5835 72.8047 78.9741C72.1016 79.7163 71.3984 80.4194 70.6562 81.1226C67.6875 84.2085 64.5625 87.1382 61.2812 89.9116C60.6953 90.3804 60.0703 90.8491 59.4062 91.3179C58.625 91.9819 57.7266 92.4507 56.6719 92.6851H56.1641C54.4062 92.5288 53.5078 91.0444 53.4688 89.3647C53.4297 86.5132 54.4844 83.5835 55.8906 81.0835C56.7109 79.5601 57.8438 78.2319 59.2891 77.0991C60.0703 76.5913 61.125 76.7866 61.6328 77.5679C62.2188 78.3882 61.9844 79.3647 61.2031 79.9507C60.0312 80.8491 58.8984 82.2944 57.8438 84.3647C56.7891 86.4351 56.2812 88.2319 56.3203 89.7554C56.3203 89.9116 56.3984 90.0679 56.5156 90.1851C56.5156 90.2241 56.5156 90.2241 56.5547 90.2241C57.7266 90.1851 59.3672 89.4038 61.4766 87.8413C63.625 86.2788 65.6953 84.5601 67.7266 82.7241C69.7969 80.8491 71.2812 79.4429 72.2578 78.4663ZM61.9453 74.4429C60.8516 73.9741 59.6406 73.0757 59.7578 71.7085C60.0312 70.1851 60.9688 68.9351 61.9453 68.9351C62.9219 68.9351 63.8203 70.1851 63.3906 71.7085C63.2734 72.0991 63.1562 72.4897 63.0781 72.8804C62.8047 73.9351 62.5703 74.7163 61.9453 74.4429ZM74.9531 72.9976C75.4609 71.3179 75.8906 69.7554 76.4766 67.9976C76.7109 66.9429 76.9844 66.0444 77.2188 65.1851C77.5312 64.2866 78.4688 63.8569 79.25 64.3257C79.875 64.7163 80.0703 65.4585 79.6797 66.0444C78.8594 67.6069 77.8438 69.0913 77.0234 70.6538C76.4766 71.5913 76.0078 72.4507 75.5 73.2319C75.3047 73.5444 74.875 73.3101 74.9531 72.9976ZM87.2188 78.4272C87.3359 78.5835 87.3359 78.8179 87.2188 78.9741C86.2812 80.0679 85.2266 81.0054 84.0547 81.7476C83.3906 82.2163 82.4141 82.7632 81.125 83.3882C79.8359 83.9741 78.5469 84.4429 77.2188 84.7554C77.1016 84.7944 76.9844 84.8726 76.9453 84.9897C76.75 85.4976 76.5938 85.9272 76.4375 86.2788C75.8125 87.7632 74.9141 89.2085 73.7031 90.5757C72.5312 91.9429 71.0859 92.6069 69.3281 92.646L68.9766 92.6069C68.8594 92.6069 68.7812 92.6069 68.6641 92.5679H68.625C68.5078 92.5288 68.4297 92.5288 68.3125 92.4897C68.3125 92.4507 68.3125 92.4507 68.2734 92.4507C66.5938 91.7866 65.6562 90.6538 65.4609 88.9741C65.2656 87.2944 65.5 85.6929 66.125 84.2085C67.3359 81.0835 69.6016 78.3101 72.8438 77.1772C73.7422 76.9038 74.6797 76.7866 75.6562 76.8257C76.75 76.8647 77.4922 77.7241 77.4531 78.8179C77.4141 79.9507 76.4375 80.7319 75.3047 80.6147C73.5469 80.4976 72.0234 81.1616 70.7344 82.5679C69.4453 83.9741 68.5859 85.4585 68.1953 87.0601C67.8828 88.271 67.8828 89.6772 69.0156 90.1851L69.1719 90.2632L69.3672 90.3022L69.5234 90.3413C70.5391 90.3804 71.5547 89.9116 72.5312 88.8569C73.5469 87.8022 74.4062 86.5522 75.0703 85.1851C75.1094 85.0288 75.0703 84.8726 74.9141 84.8726C74.6406 84.7944 74.3672 84.6772 74.1719 84.521C73.2734 83.7007 73.8984 82.4507 74.6406 81.6694C75.2656 80.9272 76.2422 80.3022 77.1406 80.9663C77.1797 81.0054 77.2188 81.0835 77.2188 81.1226C79.6016 80.3022 83.0781 78.7397 82.8828 76.396C82.8047 75.146 81.0078 75.2632 79.875 74.9897C78.8203 74.8335 79.0547 72.9194 80.1875 72.9194C82.5312 72.9194 84.7969 73.7397 84.7969 76.3569C84.7969 78.9741 80.7344 81.0444 77.5312 81.9038C77.6094 82.3335 77.5703 82.8022 77.4141 83.3491C77.4141 83.5054 77.4922 83.5835 77.6094 83.5444C77.8047 83.5054 77.9609 83.4663 78.1562 83.4272C81.2812 82.5288 84.4062 80.9272 86.5938 78.4272C86.75 78.271 87.0234 78.2319 87.2188 78.4272ZM75.3438 83.7788H75.4609C75.5781 83.7788 75.6953 83.7007 75.7344 83.5835C75.9297 83.0757 76.0078 82.6069 76.0469 82.2163V82.1772L75.5781 82.5288C75.3047 82.8413 74.9922 83.2319 74.9531 83.5835V83.6226C74.9922 83.6616 75.1875 83.7397 75.3438 83.7788ZM99.7578 78.4663C100.148 78.1538 100.617 78.5835 100.305 78.9741C99.6016 79.7163 98.8984 80.4194 98.1562 81.1226C95.1875 84.2085 92.0625 87.1382 88.7812 89.9116C88.1953 90.3804 87.5703 90.8491 86.9062 91.3179C86.125 91.9819 85.2266 92.4507 84.1719 92.6851H83.6641C81.9062 92.5288 81.0078 91.0444 80.9688 89.3647C80.9297 86.5132 81.9844 83.5835 83.3906 81.0835C84.2109 79.5601 85.3438 78.2319 86.7891 77.0991C87.5703 76.5913 88.625 76.7866 89.1328 77.5679C89.7188 78.3882 89.4844 79.3647 88.7031 79.9507C87.5312 80.8491 86.3984 82.2944 85.3438 84.3647C84.2891 86.4351 83.7812 88.2319 83.8203 89.7554C83.8203 89.9116 83.8984 90.0679 84.0156 90.1851C84.0156 90.2241 84.0156 90.2241 84.0547 90.2241C85.2266 90.1851 86.8672 89.4038 88.9766 87.8413C91.125 86.2788 93.1953 84.5601 95.2266 82.7241C97.2969 80.8491 98.7812 79.4429 99.7578 78.4663ZM89.4453 74.4429C88.3516 73.9741 87.1406 73.0757 87.2578 71.7085C87.5312 70.1851 88.4688 68.9351 89.4453 68.9351C90.4219 68.9351 91.3203 70.1851 90.8906 71.7085C90.7734 72.0991 90.6562 72.4897 90.5781 72.8804C90.3047 73.9351 90.0703 74.7163 89.4453 74.4429ZM141.203 67.646C141.242 67.7632 141.242 67.9194 141.203 68.0366L141.086 68.271C141.008 68.3882 140.93 68.4272 140.891 68.4663C140.422 68.8179 139.836 69.0522 139.523 68.4663C139.484 68.271 139.484 68.1147 139.562 67.9976C139.055 67.8804 138.586 67.8413 138.078 67.8022C137.922 67.7632 137.766 67.7632 137.57 67.7632C136.281 67.6851 134.992 67.646 133.703 67.6069C130.539 67.6069 127.375 67.7241 124.211 67.9194C123.977 67.9194 123.781 67.9976 123.664 68.1929C123.391 68.5444 123.117 68.9351 122.844 69.2866C121.984 70.9272 121.125 72.5679 120.305 74.2085C120.148 77.4507 119.055 80.4976 117.844 83.4663C116.32 87.0991 114.68 90.6929 112.922 94.2085C111.32 97.3726 109.797 100.615 108.391 103.935C108.195 104.287 107.805 104.521 107.375 104.365C107.102 104.208 106.906 103.974 106.867 103.701C106.828 103.583 106.789 103.427 106.789 103.271C106.828 102.294 106.984 101.357 107.258 100.458C107.297 100.302 107.375 100.146 107.414 99.9507C107.766 98.7788 108.117 97.646 108.508 96.5132C110.93 89.7554 113.625 83.0757 116.555 76.5522C117.375 74.7944 118.156 73.0757 118.977 71.3179L118.938 71.2788V71.2007C118.82 71.0444 118.742 70.8101 118.625 70.6538C118.586 70.6538 118.586 70.6538 118.586 70.6147C118.469 70.4585 118.352 70.3022 118.195 70.1851C117.922 69.9116 117.57 69.6772 117.18 69.4819L116.945 69.3647H116.867C116.594 69.2476 116.281 69.1304 115.93 69.0913C115.344 68.9741 114.758 68.896 114.133 68.896C112.961 69.0522 111.789 69.2866 110.656 69.5601C109.914 69.7554 109.25 69.3647 108.977 68.6226C108.781 67.8022 109.289 66.9429 110.188 66.9038C111.75 66.7866 113.312 66.7085 114.875 66.7085H116.164C117.609 66.7085 119.133 66.7085 120.734 66.6694C121.047 66.6694 121.281 66.5132 121.438 66.2397C122.922 63.1929 124.523 60.1851 126.242 57.2554C127.141 55.6538 128.195 54.0913 129.367 52.6069C129.797 52.0601 130.266 51.5522 130.852 51.0835C131.633 50.4976 132.57 50.6147 133.195 51.3569C133.43 51.6694 133.547 52.021 133.508 52.4116C133.508 52.4897 133.508 52.646 133.469 52.8804C133.43 52.9976 133.352 53.1147 133.312 53.2319C132.648 54.521 131.906 55.8101 131.086 57.0601C130.773 57.5679 130.461 58.0366 130.188 58.5444C128.508 61.2007 126.789 63.8179 124.953 66.396C124.914 66.5132 124.953 66.6694 125.109 66.6694H125.93C128.547 66.6304 131.125 66.6304 133.703 66.6694H134.016L137.648 66.7866C137.844 66.7866 138.078 66.7866 138.312 66.8257C139.133 66.7866 139.914 66.9038 140.734 67.1382C140.773 67.1772 140.852 67.2163 140.93 67.2554C140.969 67.2944 141.164 67.4507 141.203 67.646ZM119.367 70.146C119.406 70.1851 119.406 70.2632 119.445 70.3022C119.719 69.7163 119.992 69.1694 120.266 68.5835C120.383 68.4272 120.188 68.2319 119.992 68.2319C119.016 68.3101 118.078 68.3882 117.102 68.5054L117.141 68.5444H117.18C117.219 68.5444 117.219 68.5444 117.258 68.5835C117.375 68.6226 117.453 68.6616 117.531 68.7007C118.039 68.896 118.469 69.2085 118.82 69.5601C119.016 69.7554 119.211 69.9507 119.367 70.146ZM116.789 83.0366C117.57 81.2397 118.234 79.4038 118.781 77.5288C118.781 77.3726 118.703 77.4116 118.664 77.5288C115.617 83.6616 112.844 89.9116 110.305 96.2788C110.734 95.3804 111.203 94.521 111.672 93.6226C113.508 90.146 115.188 86.6304 116.789 83.0366ZM148.391 78.4272C148.781 77.9585 149.406 78.5054 149.094 78.9741C148.664 79.4819 148.117 80.0679 147.492 80.7319C145.891 82.6069 144.055 84.5601 141.984 86.5522C139.914 88.5444 138.117 89.7554 136.555 90.2241C136.32 90.2632 136.086 90.2632 135.891 90.2632C131.633 89.7944 133.352 82.8022 134.719 78.7007C134.25 79.2476 126.789 89.9116 125.148 92.2554C124.992 92.4897 124.836 92.7241 124.719 92.9194C124.289 93.5835 123.82 94.1304 123.273 94.6382C123.195 94.7163 123.117 94.7554 123 94.7944C122.961 94.7944 122.922 94.8335 122.883 94.8335C122.102 95.0288 121.477 94.2866 121.32 93.6226C121.125 92.3335 121.32 90.6538 121.906 88.6616C122.492 86.6694 123.039 84.8726 123.625 83.3491C123.742 83.0366 123.82 82.7632 123.938 82.4897C127.414 73.271 131.672 64.4429 136.711 55.9663C137.219 55.1069 137.805 54.2476 138.43 53.4272C138.469 53.3491 138.547 53.271 138.586 53.2319C139.211 52.2944 140.031 51.5132 141.008 50.8882L141.633 50.5366C142.57 50.0679 143.586 50.3804 144.094 51.2788C144.68 52.4897 143.938 53.8179 142.57 53.9351C140.969 55.2632 138.664 58.5054 135.734 63.6226C132.805 68.7397 130.031 74.1304 127.492 79.7163C124.953 85.3022 123.508 89.4819 123.117 92.2554C123.469 91.7476 123.859 91.2397 124.211 90.7319C124.328 90.5366 124.484 90.3022 124.602 90.1069C125.969 88.1147 127.258 86.0444 128.547 83.9741C128.82 83.5835 129.094 83.1538 129.406 82.646C130.383 80.9663 131.555 79.2476 132.961 77.4897C134.367 75.7319 135.852 74.8335 137.375 74.7554C138.273 74.7944 139.016 75.4194 139.172 76.3179C139.289 77.0991 139.055 77.8804 138.781 78.5054V78.5444C138.508 79.2085 138.234 79.8726 137.922 80.4585C137.805 80.771 137.57 81.2397 137.258 81.8257C135.969 84.2866 133.547 88.8179 136.008 89.1694H136.359C139.992 88.3491 146.008 81.4351 148.391 78.4272ZM161.32 78.4663C161.711 78.1538 162.18 78.5835 161.867 78.9741C161.164 79.7163 160.461 80.4194 159.719 81.1226C156.75 84.2085 153.625 87.1382 150.344 89.9116C149.758 90.3804 149.133 90.8491 148.469 91.3179C147.688 91.9819 146.789 92.4507 145.734 92.6851H145.227C143.469 92.5288 142.57 91.0444 142.531 89.3647C142.492 86.5132 143.547 83.5835 144.953 81.0835C145.773 79.5601 146.906 78.2319 148.352 77.0991C149.133 76.5913 150.188 76.7866 150.695 77.5679C151.281 78.3882 151.047 79.3647 150.266 79.9507C149.094 80.8491 147.961 82.2944 146.906 84.3647C145.852 86.4351 145.344 88.2319 145.383 89.7554C145.383 89.9116 145.461 90.0679 145.578 90.1851C145.578 90.2241 145.578 90.2241 145.617 90.2241C146.789 90.1851 148.43 89.4038 150.539 87.8413C152.688 86.2788 154.758 84.5601 156.789 82.7241C158.859 80.8491 160.344 79.4429 161.32 78.4663ZM151.008 74.4429C149.914 73.9741 148.703 73.0757 148.82 71.7085C149.094 70.1851 150.031 68.9351 151.008 68.9351C151.984 68.9351 152.883 70.1851 152.453 71.7085C152.336 72.0991 152.219 72.4897 152.141 72.8804C151.867 73.9351 151.633 74.7163 151.008 74.4429ZM156.906 96.2397C157.766 96.2397 158.469 97.3335 158.117 98.5835C157.141 101.201 155.07 100.419 155.031 98.6226C154.992 97.2163 156.047 96.2397 156.906 96.2397ZM173.391 78.6226C173.43 78.6616 173.508 78.7788 173.391 78.896C173.195 79.1304 173 79.4038 172.766 79.6772C171.633 81.1616 170.109 82.9585 168.273 85.0679C166.438 87.1382 164.523 88.9741 162.57 90.5366C160.617 92.0991 158.898 92.8413 157.375 92.7241C156.086 92.5288 154.953 91.5913 154.602 90.3413C153.859 87.4897 155.109 84.2866 156.672 81.9038C158.039 79.6772 161.359 75.8882 164.289 77.021C164.328 77.021 164.406 77.0601 164.445 77.0991C164.914 77.2944 165.266 77.8413 165.305 78.271C165.344 78.6226 165.344 78.8569 165.305 79.0522V79.0913C164.953 80.6147 164.25 81.9819 163.195 83.1538C161.75 84.9897 159.836 86.0444 157.492 86.3179C157.453 86.3179 157.414 86.3569 157.375 86.396C156.398 88.6226 156.281 90.4976 157.688 90.9663C160.734 91.5522 166.75 85.4976 168.898 83.3491C170.344 81.8257 171.75 80.2632 173.078 78.6616C173.195 78.5444 173.273 78.5054 173.391 78.6226ZM162.219 80.0679C162.297 79.9897 162.141 79.8335 162.062 79.9116C161.242 80.5366 160.344 81.4741 159.445 82.7241C159.367 82.8804 159.484 82.9976 159.641 82.9194C160.734 82.1772 161.594 81.2397 162.219 80.0679ZM168.117 73.0366C168.273 74.2866 166.711 74.6772 166.242 73.5835C165.969 72.7632 165.109 70.5366 164.328 70.2632C162.414 70.5366 159.992 73.0757 158.625 74.3257C158.195 74.5991 157.453 74.1304 157.883 73.6226C158.586 72.646 159.523 71.5913 160.695 70.4194C162.023 69.0913 164.445 67.1772 166.008 69.0132C167.102 70.146 167.805 71.5132 168.117 73.0366ZM193.703 78.4272C194.094 78.0366 194.719 78.4272 194.406 78.9741C193.938 79.5601 193.469 80.146 193 80.771C192.609 81.2397 192.219 81.7085 191.828 82.2163C191.594 82.4897 191.32 82.8413 191.008 83.2319C189.875 84.7163 188.547 86.2788 186.945 87.8804C185.383 89.4819 183.898 90.3804 182.453 90.5366C181.281 90.4585 180.461 89.9897 180.031 89.0913C179.602 88.1929 179.445 87.2163 179.484 86.1616C179.484 86.0835 179.367 86.0444 179.289 86.1226C177.219 89.2866 174.953 92.021 172.766 92.6851C172.492 92.7632 172.219 92.8022 171.906 92.8022C171.75 92.8022 171.594 92.8022 171.398 92.7632C171.281 92.7241 171.203 92.7241 171.125 92.6851C171.047 92.6851 170.969 92.646 170.891 92.6069C169.523 91.9429 168.82 90.8882 168.703 89.4429C168.586 87.9976 168.703 86.6304 169.055 85.3413C169.758 82.4897 170.93 79.8726 172.609 77.4897C174.094 75.8491 176.359 77.6069 175.266 79.4429C174.289 80.7319 173.43 82.2944 172.648 84.2085C171.906 86.0835 171.594 87.8022 171.711 89.3647C171.75 89.5601 171.828 89.7163 171.867 89.7944V89.8335C171.945 89.7944 171.906 89.9116 171.906 89.8726H171.945H172.023C173.156 89.3647 174.406 88.1929 175.773 86.3569C177.141 84.521 178.391 82.7241 179.523 81.0054C180.031 80.2241 180.461 79.5601 180.812 79.0522C181.203 78.5054 181.633 77.9585 182.062 77.3726C183.078 76.2007 184.758 77.3335 184.055 78.7397L184.016 78.7788C184.016 78.8179 184.016 78.8179 183.977 78.8569C183.977 78.896 183.977 78.896 183.938 78.896C182.727 80.6538 181.867 82.5288 181.281 84.5601C180.852 86.1226 180.344 89.0913 182.492 89.4038C185.539 89.2866 190.539 82.6851 193 79.4038C193.273 79.0522 193.508 78.7007 193.703 78.4272Z" fill="#EA262A"/>
</svg>
