<svg width="400" height="600" viewBox="0 0 400 600" fill="none" xmlns="http://www.w3.org/2000/svg">
<rect x="1" y="1" width="398" height="598" fill="#E0E0E0" stroke="#E4E4E4" stroke-width="2"/>
<g clip-path="url(#clip0_6825_60588)">
<path d="M316.834 322.051C316.834 323.045 317.032 323.939 317.33 324.734C317.628 325.529 318.026 326.224 318.522 326.82C319.019 327.416 319.615 327.913 320.311 328.31C321.006 328.708 321.702 329.105 322.496 329.304C323.291 329.602 324.086 329.701 324.98 329.9C325.874 329.999 326.669 330.099 327.563 330.099C328.855 330.099 330.146 329.999 331.338 329.701C332.531 329.403 333.623 329.006 334.617 328.41C335.61 327.814 336.405 327.019 337.001 325.926C337.597 324.933 337.895 323.641 337.895 322.151C337.895 321.058 337.697 320.164 337.299 319.468C336.902 318.773 336.306 318.177 335.71 317.68C335.014 317.183 334.319 316.786 333.425 316.488C332.531 316.19 331.637 315.892 330.742 315.693C329.848 315.494 328.954 315.296 328.159 315.097C327.265 314.898 326.57 314.7 325.874 314.501C325.179 314.302 324.682 314.004 324.285 313.607C323.887 313.209 323.689 312.812 323.689 312.216C323.689 311.719 323.788 311.421 323.987 311.123C324.185 310.825 324.483 310.626 324.881 310.527C325.179 310.328 325.576 310.328 325.974 310.229C326.371 310.229 326.768 310.13 327.166 310.13C327.762 310.13 328.259 310.13 328.755 310.229C329.252 310.328 329.65 310.527 330.047 310.726C330.444 310.924 330.742 311.322 330.941 311.719C331.14 312.117 331.338 312.613 331.338 313.209H337.299C337.2 311.819 336.803 310.626 336.207 309.732C335.61 308.838 334.915 308.043 333.922 307.547C333.027 306.95 332.034 306.553 330.842 306.354C329.65 306.156 328.457 306.056 327.265 306.056C326.073 306.056 324.881 306.156 323.689 306.354C322.496 306.553 321.503 306.95 320.509 307.547C319.615 308.143 318.821 308.838 318.224 309.732C317.628 310.626 317.33 311.819 317.33 313.309C317.33 314.302 317.529 315.196 317.926 315.792C318.324 316.488 318.92 317.084 319.516 317.481C320.112 317.879 320.907 318.276 321.801 318.574C322.695 318.872 323.589 319.071 324.483 319.27C325.576 319.468 326.57 319.766 327.464 319.965C328.358 320.164 329.053 320.462 329.65 320.661C330.246 320.959 330.742 321.257 331.04 321.555C331.338 321.853 331.537 322.25 331.537 322.747C331.537 323.244 331.438 323.74 331.14 324.138C330.842 324.535 330.544 324.833 330.146 325.032C329.749 325.231 329.351 325.429 328.855 325.529C328.358 325.628 327.861 325.628 327.464 325.628C326.868 325.628 326.272 325.529 325.676 325.429C325.079 325.33 324.583 325.032 324.185 324.734C323.788 324.436 323.391 324.038 323.093 323.542C322.794 323.045 322.695 322.449 322.695 321.753H316.834V322.051ZM300.838 329.403H306.998V319.17C306.998 318.177 307.097 317.183 307.296 316.289C307.495 315.395 307.892 314.6 308.29 314.004C308.786 313.309 309.382 312.812 310.177 312.415C310.972 312.017 311.965 311.819 313.058 311.819C313.456 311.819 313.853 311.819 314.25 311.918C314.648 311.918 315.045 312.017 315.343 312.117V306.354C315.145 306.255 314.946 306.255 314.648 306.156C314.35 306.056 314.151 306.056 313.952 306.056C313.158 306.056 312.462 306.156 311.667 306.454C310.873 306.752 310.277 307.05 309.581 307.447C308.985 307.845 308.389 308.341 307.892 308.937C307.395 309.533 306.998 310.229 306.7 310.924H306.601V306.652H300.739V329.403H300.838ZM280.77 315.594C280.77 315.196 280.869 314.6 281.068 314.104C281.267 313.507 281.565 313.011 281.962 312.514C282.36 312.017 282.856 311.62 283.552 311.222C284.247 310.825 285.042 310.726 286.035 310.726C286.83 310.726 287.426 310.825 288.022 311.024C288.618 311.222 289.016 311.52 289.413 311.918C289.811 312.315 290.109 312.812 290.407 313.408C290.705 314.004 290.804 314.7 291.003 315.494H280.77V315.594ZM297.162 319.568C297.262 318.376 297.162 317.283 297.063 316.19C296.864 315.097 296.666 314.004 296.268 313.011C295.871 312.017 295.374 311.123 294.778 310.229C294.182 309.335 293.487 308.639 292.592 308.043C291.798 307.447 290.804 306.95 289.711 306.652C288.618 306.354 287.426 306.156 286.135 306.156C284.446 306.156 282.856 306.454 281.465 307.05C280.075 307.646 278.783 308.54 277.789 309.533C276.796 310.626 276.001 311.918 275.405 313.309C274.809 314.7 274.61 316.389 274.61 318.077C274.61 319.866 274.908 321.455 275.405 322.946C275.902 324.436 276.697 325.628 277.69 326.721C278.684 327.814 279.876 328.608 281.366 329.205C282.856 329.801 284.446 330.099 286.234 330.099C287.526 330.099 288.718 329.999 289.811 329.701C290.904 329.403 291.897 328.907 292.791 328.31C293.685 327.714 294.48 326.92 295.176 325.926C295.871 324.933 296.368 323.84 296.864 322.449H291.4C291.301 322.846 291.102 323.144 290.804 323.542C290.506 323.939 290.109 324.237 289.711 324.535C289.314 324.833 288.817 325.032 288.221 325.231C287.625 325.429 287.128 325.529 286.433 325.529C284.744 325.529 283.353 325.032 282.459 324.138C281.465 323.244 280.969 321.753 280.869 319.766H297.162V319.568ZM249.773 329.403H255.933V317.481C255.933 316.289 256.032 315.296 256.231 314.501C256.429 313.706 256.728 313.011 257.125 312.514C257.522 312.017 258.019 311.62 258.615 311.322C259.211 311.123 259.907 310.924 260.801 310.924C262.192 310.924 263.285 311.421 263.881 312.315C264.477 313.209 264.775 314.6 264.775 316.488V329.403H271.034V315.395C271.034 314.004 270.934 312.713 270.636 311.52C270.438 310.328 269.941 309.434 269.345 308.54C268.749 307.745 267.855 307.05 266.762 306.652C265.669 306.156 264.377 305.957 262.688 305.957C262.092 305.957 261.496 306.056 260.9 306.156C260.304 306.354 259.708 306.553 259.112 306.851C258.516 307.149 258.019 307.547 257.423 308.043C256.926 308.54 256.429 309.037 256.032 309.732H255.833V298.009H249.674V329.403H249.773ZM225.135 322.051C225.135 323.045 225.333 323.939 225.631 324.734C225.929 325.529 226.327 326.224 226.824 326.82C227.32 327.416 227.916 327.913 228.612 328.31C229.307 328.708 230.003 329.105 230.797 329.304C231.592 329.602 232.387 329.701 233.281 329.9C234.175 329.999 234.97 330.099 235.864 330.099C237.156 330.099 238.447 329.999 239.64 329.701C240.832 329.403 241.925 329.006 242.918 328.41C243.912 327.814 244.706 327.019 245.302 325.926C245.898 324.933 246.197 323.641 246.197 322.151C246.197 321.058 245.998 320.164 245.6 319.468C245.203 318.773 244.607 318.177 244.011 317.68C243.315 317.183 242.62 316.786 241.726 316.488C240.832 316.19 239.938 315.892 239.043 315.693C238.149 315.494 237.255 315.296 236.46 315.097C235.566 314.898 234.871 314.7 234.175 314.501C233.48 314.302 232.983 314.004 232.586 313.607C232.188 313.209 231.99 312.812 231.99 312.216C231.99 311.719 232.089 311.421 232.288 311.123C232.486 310.825 232.784 310.626 233.182 310.527C233.48 310.328 233.877 310.328 234.275 310.229C234.672 310.229 235.069 310.13 235.467 310.13C236.063 310.13 236.56 310.13 237.056 310.229C237.553 310.328 237.951 310.527 238.348 310.726C238.745 310.924 239.043 311.322 239.242 311.719C239.441 312.117 239.64 312.613 239.64 313.209H245.6C245.501 311.819 245.104 310.626 244.508 309.732C243.912 308.838 243.216 308.043 242.223 307.547C241.328 306.95 240.335 306.553 239.143 306.354C237.951 306.156 236.758 306.056 235.566 306.056C234.374 306.056 233.182 306.156 231.99 306.354C230.797 306.553 229.804 306.95 228.811 307.547C227.916 308.143 227.122 308.838 226.525 309.732C225.929 310.626 225.631 311.819 225.631 313.309C225.631 314.302 225.83 315.196 226.227 315.792C226.625 316.488 227.221 317.084 227.817 317.481C228.413 317.879 229.208 318.276 230.102 318.574C230.996 318.872 231.89 319.071 232.784 319.27C233.877 319.468 234.871 319.766 235.765 319.965C236.659 320.164 237.355 320.462 237.951 320.661C238.547 320.959 239.043 321.257 239.341 321.555C239.64 321.853 239.838 322.25 239.838 322.747C239.838 323.244 239.739 323.74 239.441 324.138C239.143 324.535 238.845 324.833 238.447 325.032C238.05 325.231 237.653 325.429 237.156 325.529C236.659 325.628 236.162 325.628 235.765 325.628C235.169 325.628 234.573 325.529 233.977 325.429C233.381 325.33 232.884 325.032 232.486 324.734C232.089 324.436 231.692 324.038 231.394 323.542C231.096 323.045 230.996 322.449 230.996 321.753H225.135V322.051ZM221.359 298.009H215.1V303.175H221.359V298.009ZM215.1 329.403H221.359V306.652H215.1V329.403ZM203.775 329.403H210.034V298.009H203.775V329.403ZM193.144 320.76C192.946 321.654 192.648 322.449 192.151 323.045C191.753 323.74 191.157 324.237 190.462 324.635C189.766 325.032 188.972 325.231 188.078 325.231C187.183 325.231 186.389 325.032 185.693 324.635C184.998 324.237 184.501 323.74 184.004 323.045C183.607 322.349 183.209 321.555 183.011 320.76C182.812 319.965 182.713 318.972 182.713 318.077C182.713 317.084 182.812 316.19 183.011 315.296C183.209 314.402 183.507 313.607 184.004 313.011C184.402 312.315 184.998 311.819 185.693 311.421C186.389 311.024 187.183 310.825 188.078 310.825C188.972 310.825 189.766 311.024 190.462 311.421C191.157 311.819 191.654 312.315 192.151 313.011C192.548 313.706 192.946 314.501 193.144 315.296C193.343 316.091 193.442 317.084 193.442 318.077C193.442 319.071 193.343 319.965 193.144 320.76ZM176.851 329.403H182.713V326.522H182.812C183.11 327.118 183.607 327.714 184.104 328.112C184.6 328.509 185.196 328.907 185.792 329.205C186.389 329.503 187.084 329.701 187.879 329.801C188.674 329.9 189.369 329.999 190.263 329.999C191.356 329.999 192.548 329.801 193.641 329.304C194.734 328.807 195.727 328.112 196.621 327.118C197.516 326.125 198.211 324.933 198.807 323.343C199.403 321.753 199.602 320.064 199.602 317.978C199.602 315.892 199.304 314.104 198.807 312.613C198.211 311.123 197.516 309.832 196.621 308.937C195.727 307.944 194.734 307.248 193.641 306.752C192.548 306.255 191.356 306.056 190.263 306.056C189.568 306.056 188.872 306.156 188.177 306.255C187.481 306.354 186.786 306.553 186.19 306.851C185.594 307.149 184.998 307.447 184.501 307.944C184.004 308.341 183.507 308.838 183.11 309.434H183.011V298.009H176.851V329.403ZM172.182 306.652H165.923V318.574C165.923 319.766 165.823 320.76 165.625 321.555C165.426 322.349 165.128 323.045 164.731 323.542C164.333 324.038 163.836 324.436 163.24 324.734C162.644 324.933 161.949 325.131 161.055 325.131C159.664 325.131 158.571 324.635 157.975 323.74C157.379 322.846 157.081 321.455 157.081 319.568V306.652H150.921V320.661C150.921 322.051 151.02 323.343 151.318 324.535C151.616 325.727 152.014 326.621 152.61 327.516C153.206 328.41 154.1 329.006 155.193 329.403C156.286 329.801 157.577 330.099 159.266 330.099C159.962 330.099 160.558 329.999 161.253 329.9C161.949 329.801 162.545 329.503 163.141 329.205C163.737 328.907 164.333 328.509 164.83 328.012C165.327 327.516 165.823 327.019 166.221 326.323H166.32V329.403H172.281V306.652H172.182ZM129.263 303.374H134.628C135.423 303.374 136.217 303.473 136.913 303.573C137.608 303.672 138.304 303.871 138.8 304.268C139.397 304.566 139.794 305.063 140.092 305.659C140.39 306.255 140.589 307.05 140.589 308.043C140.589 309.037 140.39 309.832 140.092 310.428C139.794 311.024 139.297 311.52 138.8 311.819C138.204 312.117 137.608 312.415 136.913 312.514C136.217 312.613 135.423 312.713 134.628 312.713H129.263V303.374ZM122.309 329.403H129.164V318.177H136.416C138.403 318.177 139.993 317.879 141.384 317.283C142.774 316.687 143.867 315.991 144.761 314.998C145.656 314.104 146.252 313.011 146.649 311.819C147.046 310.626 147.245 309.335 147.245 308.143C147.245 306.95 147.046 305.659 146.649 304.467C146.252 303.275 145.656 302.182 144.761 301.288C143.867 300.393 142.774 299.599 141.384 299.003C139.993 298.406 138.304 298.108 136.416 298.108H122.309V329.403Z" fill="#BDBDBD"/>
<path d="M67.069 273.867H100.152V324.833L67.069 324.734V273.867ZM62.1016 268.9V329.8H105.12V268.9H62.1016Z" fill="#BDBDBD"/>
<path d="M78.4939 307.347H88.7268C89.6209 307.347 90.3164 308.043 90.3164 308.937V312.513C90.3164 313.408 89.6209 314.103 88.7268 314.103H78.4939C77.5997 314.103 76.9043 313.408 76.9043 312.513V308.937C76.9043 308.043 77.5997 307.347 78.4939 307.347Z" fill="#BDBDBD"/>
<path d="M74.6197 298.208L77.5008 305.56C77.6995 305.957 78.0969 306.156 78.4943 306.156H88.7272C89.1246 306.156 89.522 305.957 89.7207 305.56L92.7012 298.208C92.8999 297.81 92.8999 297.413 92.6018 297.016L84.5546 284.796C84.4552 284.597 84.2565 284.498 84.0578 284.398V293.936C84.8526 294.134 85.3494 294.83 85.3494 295.625C85.3494 296.618 84.5546 297.413 83.5611 297.413C82.5676 297.413 81.7728 296.618 81.7728 295.625C81.7728 294.83 82.3689 294.134 83.0643 293.936V284.398C82.8656 284.498 82.6669 284.597 82.5676 284.796L74.5203 297.016C74.421 297.413 74.421 297.81 74.6197 298.208Z" fill="#BDBDBD"/>
<path d="M140.292 268.8H135.722L131.052 283.106L126.482 268.8H121.912L128.469 289.166H133.536L140.292 268.8Z" fill="#BDBDBD"/>
<path d="M154.994 268.8V269.197V271.78C156.882 271.88 158.571 273.171 159.266 274.86C159.365 274.96 159.365 275.158 159.465 275.258L164.333 289.067H167.81L172.778 274.662H172.877V289.067H177.05V268.8H170.791L166.32 282.808H166.221L161.651 269.495L161.352 268.8H154.994Z" fill="#BDBDBD"/>
<path d="M179.336 268.8V272.575H185.396V289.166H189.867V272.575H196.027V268.8H179.336Z" fill="#BDBDBD"/>
<path d="M154.995 273.072C154.896 273.072 154.797 273.072 154.697 273.072V275.059C154.797 275.059 154.896 275.059 154.995 275.059C156.883 275.158 158.473 276.351 159.168 278.039C159.466 278.636 159.565 279.331 159.565 280.026V278.039C159.565 277.344 159.367 276.649 159.168 276.052C158.473 274.463 156.883 273.271 154.995 273.072Z" fill="#BDBDBD"/>
<path d="M159.269 285.093V281.119V281.02C159.17 278.735 157.382 276.847 155.097 276.648C154.997 276.648 154.898 276.648 154.799 276.648H154.203H153.408H152.216H146.553V268.8H142.082V289.166H146.553V280.424H153.507C154.203 280.424 154.799 281.02 154.799 281.715V289.266H155.097H159.269V288.57V286.583V285.093Z" fill="#BDBDBD"/>
</g>
<defs>
<clipPath id="clip0_6825_60588">
<rect width="275.794" height="61.8769" fill="white" transform="translate(62.1035 268.8)"/>
</clipPath>
</defs>
</svg>
