<svg width="43" height="45" viewBox="0 0 43 45" fill="none" xmlns="http://www.w3.org/2000/svg">
	<path d="M10.4607 11.449L35.8747 7.73369C34.4548 6.50479 32.6061 5.76172 30.586 5.76172H12.0806C7.61151 5.76172 4 9.38176 4 13.8401V32.3309C4 36.3416 6.92541 39.6759 10.7561 40.3045L7.39235 15.5644C7.10647 13.5829 8.50724 11.7348 10.4607 11.449Z" fill="#0068FF" />
	<path d="M35.8748 7.73438L10.4608 11.4497C8.50739 11.7355 7.11614 13.5931 7.40202 15.5747L10.7562 40.3148C11.185 40.3815 11.6329 40.4291 12.0808 40.4291H30.5862C35.0554 40.4291 38.6668 36.8091 38.6668 32.3507V13.8313C38.6572 11.3925 37.59 9.21098 35.8748 7.73438Z" fill="white" />
	<path d="M35.8744 7.73438L35.7886 7.75343C37.5325 9.27765 38.5806 11.5259 38.5806 13.8408V32.3125C38.5806 36.7328 34.9786 40.3339 30.5572 40.3339H12.0709C11.6516 40.3339 11.1656 40.2861 10.7368 40.2195L10.7464 40.3148C11.1942 40.3909 11.623 40.4291 12.0614 40.4291H30.5286C35.0073 40.4291 38.6474 36.79 38.6474 32.3125V13.8313C38.6569 11.4687 37.6564 9.27766 35.8744 7.73438Z" fill="#B3B3B3" />
	<path d="M25.5924 17.2609C25.4304 17.099 25.2494 17.0133 24.992 17.0133C24.649 17.0133 24.3918 17.1752 24.2392 17.5181C23.8962 17.1085 23.4198 16.918 22.8195 16.918C22.0952 16.918 21.495 17.2038 20.9899 17.7373C20.4848 18.3089 20.2656 18.9662 20.2656 19.7569C20.2656 20.5476 20.5134 21.2334 20.9899 21.7765C21.495 22.3481 22.0952 22.5957 22.8195 22.5957C23.4198 22.5957 23.8867 22.4052 24.2392 21.9956C24.4012 22.3385 24.649 22.5005 24.992 22.5005C25.2398 22.5005 25.4304 22.4052 25.5924 22.2528C25.7544 22.1004 25.8115 21.9098 25.8115 21.6526V17.7754C25.8402 17.642 25.7448 17.4229 25.5924 17.2609ZM23.8772 20.7572C23.6866 21.0048 23.4007 21.1382 23.0576 21.1382C22.7146 21.1382 22.4287 21.0144 22.2382 20.7572C22.0476 20.5094 21.9238 20.1856 21.9238 19.776C21.9238 19.3949 22.019 19.0805 22.2382 18.8328C22.4287 18.5852 22.7146 18.4517 23.0576 18.4517C23.4007 18.4517 23.6866 18.5756 23.8772 18.8328C24.0678 19.0805 24.1916 19.4044 24.1916 19.776C24.1631 20.157 24.0678 20.519 23.8772 20.7572Z" fill="#0068FF" />
	<path d="M27.6888 22.2992C27.5268 22.4612 27.3457 22.547 27.0885 22.547C26.8408 22.547 26.6501 22.4516 26.4881 22.2992C26.3261 22.1374 26.269 21.9563 26.269 21.6991V14.7639C26.269 14.5447 26.3357 14.3542 26.4881 14.1637C26.6501 14.0017 26.8312 13.916 27.0885 13.916C27.3362 13.916 27.5268 14.0113 27.6888 14.1637C27.8508 14.3256 27.908 14.5067 27.908 14.7639V21.6991C27.9176 21.9563 27.8508 22.1468 27.6888 22.2992Z" fill="#0068FF" />
	<path d="M33.1393 17.7655C32.6057 17.1939 31.9386 16.9463 31.1192 16.9463C30.2996 16.9463 29.6421 17.232 29.0989 17.7655C28.594 18.299 28.3081 18.9944 28.3081 19.8136C28.3081 20.633 28.5558 21.2903 29.0989 21.8619C29.604 22.3954 30.2996 22.6811 31.1192 22.6811C31.9386 22.6811 32.5961 22.3954 33.1393 21.8619C33.6444 21.3284 33.8921 20.633 33.8921 19.8423C33.9397 18.9944 33.692 18.3086 33.1393 17.7655ZM31.9768 20.7568C31.7861 21.0044 31.5002 21.1379 31.1572 21.1379C30.8142 21.1379 30.5284 21.014 30.3377 20.7568C30.1472 20.5091 30.0233 20.1852 30.0233 19.7756C30.0233 19.3946 30.1185 19.0802 30.3377 18.8324C30.5284 18.5848 30.8142 18.4514 31.1572 18.4514C31.5002 18.4514 31.7861 18.5752 31.9768 18.8324C32.1673 19.0802 32.2912 19.404 32.2912 19.7756C32.2626 20.1567 32.1673 20.5187 31.9768 20.7568Z" fill="#0068FF" />
	<path d="M19.351 17.1362C19.9227 16.3837 20.2372 15.8788 20.2372 15.6216C20.2372 15.0213 19.856 14.707 19.1032 14.707H15.101C14.7866 14.707 14.5292 14.7737 14.3768 14.9261C14.2148 15.0881 14.1291 15.269 14.1291 15.4977C14.1291 15.7453 14.2243 15.9358 14.3768 16.0693C14.5388 16.2312 14.7866 16.2884 15.101 16.2884H17.8454L14.3196 20.8229C14.1004 21.1088 13.9766 21.3945 13.9766 21.6137C13.9766 22.2709 14.415 22.5949 15.3011 22.5949H19.4272C20.0847 22.5949 20.4087 22.309 20.4087 21.7756C20.4087 21.204 20.0943 20.9564 19.4272 20.9564H16.397L19.351 17.1362Z" fill="#0068FF" />
	<path d="M17.3883 26.9492H16.3496V29.0932H17.3883C17.7027 29.0932 17.96 28.998 18.1411 28.7788C18.3316 28.5883 18.4269 28.3024 18.4269 28.026C18.4269 27.7116 18.3316 27.4543 18.1411 27.2732C17.96 27.0446 17.7123 26.9492 17.3883 26.9492Z" fill="#39B54A" />
	<path d="M22.5333 28.9209C22.2188 28.9209 21.9616 29.0448 21.7805 29.2638C21.59 29.5117 21.4946 29.7976 21.4946 30.1501C21.4946 30.5026 21.59 30.8076 21.7805 31.0362C21.971 31.2841 22.2188 31.3793 22.5333 31.3793C22.8477 31.3793 23.105 31.2554 23.2861 31.0362C23.4766 30.7885 23.572 30.5026 23.572 30.1501C23.572 29.807 23.4766 29.4926 23.2861 29.2638C23.086 29.0448 22.8382 28.9209 22.5333 28.9209Z" fill="#39B54A" />
	<path d="M29.7851 23.8906H14.8626C14.3575 23.8906 13.9478 24.3002 13.9478 24.8052V33.5314C13.9478 34.0362 14.3575 34.446 14.8626 34.446H26.6215C26.4976 34.3221 26.4308 34.1982 26.4308 34.0362C26.4308 33.9125 26.4595 33.7886 26.5262 33.6266L27.0979 32.3977L25.5542 28.549C25.5256 28.4538 25.4875 28.33 25.4875 28.2061C25.4875 28.0441 25.5542 27.8917 25.7067 27.7965C25.8306 27.6726 25.9926 27.606 26.145 27.606C26.488 27.606 26.7167 27.7678 26.8406 28.1109L27.784 30.7306L28.794 28.1109C28.9179 27.7965 29.1371 27.606 29.4896 27.606C29.6516 27.606 29.8042 27.6726 29.928 27.7965C30.0519 27.9204 30.1472 28.0441 30.1472 28.2061C30.1472 28.33 30.1186 28.4538 30.0804 28.549L27.8126 34.0649C27.7459 34.2268 27.6887 34.3506 27.5934 34.446H29.766C30.2711 34.446 30.6808 34.0362 30.6808 33.5314V24.8052C30.6903 24.2717 30.2711 23.8906 29.7851 23.8906ZM19.2555 29.7494C18.7791 30.1876 18.1883 30.3781 17.4926 30.3781H16.3587V32.0166C16.3587 32.2644 16.2919 32.4549 16.1395 32.5882C16.0156 32.7121 15.8251 32.8074 15.6059 32.8074C15.3867 32.8074 15.1962 32.7406 15.0723 32.5882C14.9483 32.4644 14.8531 32.2453 14.8531 32.0166V26.3485C14.8531 25.815 15.1008 25.5577 15.644 25.5577H17.445C18.1978 25.5577 18.7982 25.7769 19.3031 26.215C19.7796 26.6533 20.0274 27.2534 20.0274 27.9489C20.0083 28.7301 19.751 29.3017 19.2555 29.7494ZM25.0778 31.9881C25.0778 32.2072 25.0111 32.3692 24.8586 32.5216C24.6966 32.6836 24.5442 32.7406 24.325 32.7406C24.0104 32.7406 23.7532 32.5788 23.6007 32.2644C23.2863 32.6454 22.8479 32.836 22.2762 32.836C21.6187 32.836 21.047 32.5882 20.6086 32.0833C20.1703 31.5785 19.913 30.9497 19.913 30.1972C19.913 29.4445 20.1322 28.8444 20.6086 28.3109C21.047 27.806 21.6187 27.5584 22.2762 27.5584C22.8479 27.5584 23.2576 27.7489 23.6007 28.1298C23.7627 27.8156 23.9819 27.6536 24.325 27.6536C24.5442 27.6536 24.7347 27.7202 24.8586 27.8726C25.0206 28.0346 25.0778 28.187 25.0778 28.4061V31.9881Z" fill="#39B54A" />
</svg>