<svg width="45" height="45" viewBox="0 0 45 45" fill="none" xmlns="http://www.w3.org/2000/svg">
	<path d="M22.6665 44.873C34.8168 44.873 44.6665 35.0234 44.6665 22.873C44.6665 10.7228 34.8168 0.873047 22.6665 0.873047C10.5162 0.873047 0.666504 10.7228 0.666504 22.873C0.666504 35.0234 10.5162 44.873 22.6665 44.873Z" fill="#EE0033" />
	<path d="M20.2684 9.08887H17.2947C16.5411 9.08887 15.8182 9.38825 15.2854 9.92114C14.7525 10.454 14.4531 11.1768 14.4531 11.9304V33.8202C14.4531 34.1934 14.5265 34.5629 14.6694 34.9077C14.8123 35.2524 15.0215 35.5656 15.2854 35.8295C15.5493 36.0934 15.8625 36.3028 16.2072 36.4455C16.5521 36.5884 16.9215 36.6618 17.2947 36.6618H20.2684C20.3616 36.6618 20.454 36.6435 20.5402 36.6078C20.6265 36.572 20.7047 36.5198 20.7707 36.4538C20.8367 36.3878 20.889 36.3095 20.9247 36.2233C20.9605 36.1371 20.9787 36.0447 20.9787 35.9515V33.8257C20.9787 33.6373 20.9039 33.4567 20.7707 33.3234C20.6375 33.1902 20.4568 33.1154 20.2684 33.1154H15.6523V12.6312H20.2684C20.4565 12.6297 20.6365 12.5537 20.7686 12.4197C20.9008 12.2857 20.9743 12.1048 20.9732 11.9167V9.79926C20.9732 9.61181 20.8991 9.43194 20.7671 9.29887C20.6351 9.16581 20.4558 9.09032 20.2684 9.08887Z" fill="white" />
	<path d="M28.0383 9.08887H25.0646C24.8763 9.08923 24.6961 9.16424 24.5631 9.29742C24.4301 9.4306 24.3555 9.61108 24.3555 9.79925V11.9167C24.3555 12.1048 24.4301 12.2853 24.5631 12.4185C24.6961 12.5517 24.8763 12.6267 25.0646 12.627H29.6821V33.1181H25.0646C24.8763 33.1186 24.6961 33.1935 24.5631 33.3267C24.4301 33.46 24.3555 33.6404 24.3555 33.8286V35.9501C24.3555 36.1382 24.4301 36.3187 24.5631 36.452C24.6961 36.5851 24.8763 36.6601 25.0646 36.6604H28.0383C28.4121 36.6612 28.7824 36.5881 29.128 36.4455C29.4735 36.3028 29.7875 36.0934 30.0521 35.8292C30.3165 35.565 30.5262 35.2512 30.6692 34.9056C30.8122 34.5602 30.8856 34.19 30.8853 33.8162V11.9304C30.8853 11.5568 30.8116 11.1868 30.6685 10.8417C30.5254 10.4966 30.3155 10.1831 30.051 9.91919C29.7866 9.65526 29.4727 9.44607 29.1273 9.30359C28.7819 9.16111 28.4119 9.08814 28.0383 9.08887Z" fill="white" />
</svg>