<svg width="43" height="45" viewBox="0 0 43 45" fill="none" xmlns="http://www.w3.org/2000/svg">
	<mask id="mask0_11307_196415" style="mask-type:alpha" maskUnits="userSpaceOnUse" x="4" y="5" width="35" height="36">
		<path d="M14.2556 5.76172H28.4111C31.9772 5.76172 33.2704 6.13303 34.574 6.83025C35.8777 7.52748 36.9009 8.55064 37.5981 9.85435C38.2953 11.158 38.6667 12.4512 38.6667 16.0173V30.1728C38.6667 33.7389 38.2953 35.0321 37.5981 36.3357C36.9009 37.6395 35.8777 38.6627 34.574 39.3599C33.2704 40.0571 31.9772 40.4284 28.4111 40.4284H14.2556C10.6895 40.4284 9.39632 40.0571 8.09261 39.3599C6.78892 38.6627 5.76576 37.6395 5.06853 36.3357C4.37131 35.0321 4 33.7389 4 30.1728V16.0173C4 12.4512 4.37131 11.158 5.06853 9.85435C5.76576 8.55064 6.78892 7.52748 8.09261 6.83025C9.39632 6.13303 10.6895 5.76172 14.2556 5.76172Z" fill="white" />
	</mask>
	<g mask="url(#mask0_11307_196415)">
		<path d="M14.2556 5.76172H28.4111C31.9772 5.76172 33.2704 6.13303 34.574 6.83025C35.8777 7.52748 36.9009 8.55064 37.5981 9.85435C38.2953 11.158 38.6667 12.4512 38.6667 16.0173V30.1728C38.6667 33.7389 38.2953 35.0321 37.5981 36.3357C36.9009 37.6395 35.8777 38.6627 34.574 39.3599C33.2704 40.0571 31.9772 40.4284 28.4111 40.4284H14.2556C10.6895 40.4284 9.39632 40.0571 8.09261 39.3599C6.78892 38.6627 5.76576 37.6395 5.06853 36.3357C4.37131 35.0321 4 33.7389 4 30.1728V16.0173C4 12.4512 4.37131 11.158 5.06853 9.85435C5.76576 8.55064 6.78892 7.52748 8.09261 6.83025C9.39632 6.13303 10.6895 5.76172 14.2556 5.76172Z" fill="#A50064" />
		<path d="M28.2167 12.4287C25.3904 12.4287 23.0998 14.5831 23.0998 17.2407C23.0998 19.8987 25.3904 22.0532 28.2167 22.0532C31.0427 22.0532 33.3335 19.8987 33.3335 17.2407C33.3335 14.5831 31.0427 12.4287 28.2167 12.4287ZM28.2167 19.2946C27.0178 19.2946 26.0435 18.3786 26.0435 17.2511C26.0435 16.1235 27.0178 15.2074 28.2167 15.2074C29.4155 15.2074 30.3898 16.1235 30.3898 17.2511C30.3898 18.3786 29.4155 19.2946 28.2167 19.2946ZM21.6226 22.0636H18.6787V16.0128C18.6787 15.5598 18.2932 15.1978 17.8118 15.1978C17.33 15.1978 16.9446 15.5598 16.9446 16.0128V22.0636H14.001V16.0128C14.001 15.5598 13.6158 15.1978 13.134 15.1978C12.6522 15.1978 12.2667 15.5598 12.2667 16.0128V22.0636H9.3335V16.043C9.3335 14.0496 11.057 12.4287 13.1765 12.4287C14.0435 12.4287 14.8358 12.7006 15.478 13.1535C16.2195 12.6703 16.9867 12.4287 17.7795 12.4287C19.899 12.4287 21.6226 14.0496 21.6226 16.043V22.0636ZM28.2167 24.1375C25.3904 24.1375 23.0998 26.2918 23.0998 28.9495C23.0998 31.6075 25.3904 33.762 28.2167 33.762C31.0427 33.7618 33.3335 31.6072 33.3335 28.9495C33.3335 26.2918 31.0427 24.1375 28.2167 24.1375ZM17.7795 24.1263C19.899 24.1263 21.6226 25.7472 21.6226 27.7406V33.7612H18.6787V27.7106C18.6787 27.2574 18.2932 26.8954 17.8118 26.8954C17.33 26.8954 16.9446 27.2574 16.9446 27.7106V33.7612H14.001V27.7106C14.001 27.2574 13.6158 26.8954 13.134 26.8954C12.6522 26.8954 12.2667 27.2574 12.2667 27.7106V33.7612H9.3335V27.7406C9.3335 25.7472 11.057 24.1263 13.1765 24.1263C14.0435 24.1263 14.8358 24.3983 15.478 24.8511C16.2195 24.3679 16.9867 24.1263 17.7795 24.1263ZM28.2167 26.916C29.4155 26.916 30.3898 27.8322 30.3898 28.9599C30.3898 30.0872 29.4155 31.0034 28.2167 31.0034C27.0178 31.0034 26.0435 30.0872 26.0435 28.9599C26.0435 27.8322 27.0178 26.916 28.2167 26.916Z" fill="white" />
	</g>
</svg>