<svg width="47" height="45" viewBox="0 0 47 45" fill="none" xmlns="http://www.w3.org/2000/svg">
	<path d="M25.6724 9.10698L23.2679 11.5115L23.1476 11.6301L22.3828 12.3967L21.8121 12.9673L21.0473 13.7321L20.9287 13.8507L20.5953 14.1842L20.4767 14.3045H20.4749L19.3474 15.4303V15.432L19.2288 15.5506C18.9006 15.8795 18.5274 16.1602 18.1203 16.3842C17.9192 16.4942 17.7146 16.5904 17.5032 16.6712C17.037 16.8506 16.5461 16.9578 16.0474 16.9892C15.7432 17.0098 15.4356 17.0012 15.1331 16.9651C14.4799 16.8878 13.8371 16.6781 13.2528 16.3395C13.0018 16.1951 12.7457 16.0439 12.5326 15.8325C12.5309 15.8325 12.5309 15.8325 12.5292 15.8307C12.4828 15.786 12.4363 15.7396 12.3882 15.6898L8.00885 11.3104L7.91604 11.2176C7.84041 11.1334 7.77166 11.0423 7.71322 10.9443C7.56221 10.6894 7.48265 10.3985 7.48291 10.1021C7.48291 10.054 7.48463 10.0059 7.48979 9.95948C7.49666 9.8873 7.50697 9.81855 7.52072 9.75323C7.5276 9.72745 7.53275 9.69995 7.53963 9.67589C7.54307 9.66558 7.5465 9.65355 7.54822 9.64323C7.6101 9.43698 7.7115 9.24277 7.85244 9.06917C7.89025 9.02448 7.92807 8.9798 7.97104 8.93683L8.04838 8.8612L12.7148 4.1948H12.7165L15.5438 1.36745C16.1746 0.736671 17.1784 0.709171 17.8401 1.28667L25.6724 9.10698Z" fill="#085CA8" />
	<path d="M17.1545 19.614C16.7781 19.614 16.4069 19.5298 16.0528 19.3682L15.1556 18.4728L14.9356 18.2545L14.8978 18.215L14.4801 17.7973L12.3901 15.685C12.4365 15.7331 12.4829 15.7795 12.5311 15.8259C12.7442 16.0373 13.002 16.1903 13.2547 16.3346C13.8408 16.6732 14.4819 16.8829 15.135 16.9603C15.4375 16.9981 15.7451 17.005 16.0494 16.9843C16.5444 16.9534 17.0359 16.8468 17.5051 16.6664C17.7148 16.5856 17.9211 16.4911 18.1222 16.3793C18.5192 16.1593 18.8922 15.8826 19.2308 15.5457L19.3494 15.4271V15.4254L20.4769 14.2996H20.4786L20.5972 14.1793L20.9306 13.8459L21.0492 13.7273L21.814 12.9625L22.3847 12.3918L23.1495 11.6253L23.2698 11.5067L28.1167 6.6598L30.1156 4.49418L30.1276 4.48215L30.2342 4.37559C30.8444 3.76543 31.8344 3.76543 32.4445 4.37559L33.5394 5.47043H33.5411L33.5772 5.50652C33.0925 5.48246 32.6044 5.65777 32.2383 6.01527L28.5344 9.6573L28.4965 9.70199L22.0512 16.0442L22.0426 16.0356L19.669 18.3679L19.6536 18.3868C19.6467 18.3954 19.5951 18.4521 19.5109 18.5364C19.3236 18.7186 18.9334 19.0623 18.4109 19.3098C18.1737 19.4215 17.9331 19.5023 17.6942 19.5521C17.5533 19.5796 17.4072 19.5986 17.2662 19.6054H17.1545V19.614Z" fill="#EB2227" />
	<path d="M39.4657 13.6175L39.3471 13.7378L34.098 19.066L28.586 24.6622C28.4139 24.8353 28.2289 24.995 28.0326 25.14C28.0257 25.1469 28.0188 25.1521 28.0102 25.1589C27.9844 25.1778 27.9569 25.1985 27.9294 25.2174C27.926 25.2208 27.9226 25.2225 27.9208 25.226C27.0606 25.8412 26.0291 26.1712 24.9715 26.1696C23.6137 26.1696 22.3813 25.6367 21.4687 24.7705L21.4652 24.7671L21.3415 24.6588L20.3927 23.71L17.7287 21.0442L16.8401 20.1556L16.7163 20.0319C16.8607 20.056 17.0068 20.0663 17.1546 20.0663H17.1597L17.2783 20.0646C17.4485 20.0577 17.6169 20.0388 17.7837 20.0044C18.0569 19.9477 18.3319 19.8549 18.6018 19.7277C19.1844 19.4527 19.6176 19.0711 19.8255 18.8683C19.9063 18.7892 19.9665 18.7222 19.9922 18.693L22.041 16.6803L22.0496 16.6889L29.0947 9.75893L29.1326 9.71424L32.5546 6.34721C33.0152 5.8969 33.7354 5.83846 34.2579 6.19768L35.0691 7.00893C35.0708 7.00893 35.0708 7.01065 35.0708 7.01065L39.4708 11.4106C39.5104 11.4502 39.5465 11.4897 39.5808 11.5327C40.0741 12.1411 40.0363 13.0486 39.4657 13.6175Z" fill="#EB2227" />
	<path d="M22.4618 7.7836C22.338 7.90735 22.1335 7.90391 22.008 7.77844C19.9318 5.68673 16.5407 5.67298 14.449 7.74923C12.359 9.82548 12.3435 13.2166 14.4215 15.3083L16.0474 16.948C16.0577 16.9583 16.0697 16.972 16.0749 16.9841C16.0663 16.9841 16.0594 16.9858 16.0508 16.9858C15.7552 17.0064 15.4562 16.9978 15.1622 16.9634L13.9677 15.7586C11.644 13.4177 11.6577 9.62094 13.9987 7.29548C16.3413 4.97173 20.1363 4.98719 22.4618 7.32813L22.4669 7.33329C22.5907 7.45876 22.5872 7.65985 22.4618 7.7836ZM24.9471 9.83235L24.4951 10.2844L23.7027 9.48688C23.579 9.36141 23.579 9.1586 23.7044 9.03485C23.8299 8.9111 24.031 8.9111 24.1565 9.03657L24.9471 9.83235Z" fill="#099DD9" />
	<path d="M18.1374 16.3735C18.1323 16.3769 18.1288 16.3786 18.1237 16.3821C17.9277 16.4886 17.7283 16.5832 17.5221 16.6622L15.3083 14.4296C13.923 13.034 13.7254 10.846 14.8374 9.22693C14.8854 9.15735 14.959 9.1096 15.0421 9.09414C15.1252 9.07868 15.211 9.09676 15.2808 9.14443C15.4269 9.24412 15.463 9.44349 15.3633 9.58958C14.4249 10.9543 14.5933 12.8019 15.7621 13.9793L18.1374 16.3735ZM23.6099 11.1674L23.5996 11.1777L23.2662 11.5111L23.1596 11.6177L20.6691 9.10833C19.7444 8.17677 18.3952 7.85021 17.144 8.25583C16.9773 8.31083 16.7968 8.21802 16.7418 8.0513C16.6868 7.88287 16.7796 7.7024 16.948 7.6474C18.4262 7.16787 20.028 7.5563 21.1212 8.65802L23.6099 11.1674Z" fill="#099DD9" />
	<path d="M22.2745 12.5029L21.8225 12.9549L19.3269 10.4387C18.7184 9.82336 17.7216 9.81992 17.108 10.4301C16.4944 11.0402 16.4892 12.0354 17.0994 12.649L18.7081 14.2715C18.8319 14.3952 18.8319 14.598 18.7064 14.7235C18.5827 14.8473 18.3798 14.8473 18.2544 14.7218L16.6439 13.0993C15.788 12.2348 15.7931 10.8357 16.6559 9.97805C17.5205 9.12039 18.9212 9.12727 19.7772 9.99008L22.2745 12.5029Z" fill="#099DD9" />
	<path d="M20.9409 13.8386L20.9306 13.8489L20.5972 14.1824L20.4906 14.2889L17.9881 11.7692C17.8644 11.6455 17.8644 11.4427 17.9898 11.3172C18.1153 11.1935 18.3181 11.1935 18.4419 11.3189L20.9409 13.8386Z" fill="#099DD9" />
	<path d="M10.8245 43.135C11.0634 43.135 11.2404 43.0937 11.3573 43.0112C11.4742 42.9287 11.5498 42.8032 11.5859 42.6331C11.6082 42.5265 11.5945 42.4354 11.5498 42.3615C11.5034 42.2876 11.4003 42.1965 11.2387 42.09L10.6011 41.65C10.4567 41.5486 10.3467 41.4454 10.2711 41.3389C10.1954 41.2323 10.1525 41.1223 10.1387 41.0071C10.125 40.892 10.1336 40.7665 10.1611 40.6325C10.2298 40.3059 10.3914 40.0481 10.6457 39.859C10.9001 39.6717 11.2628 39.5771 11.7354 39.5771C11.9193 39.5771 12.0964 39.5995 12.2648 39.6442C12.4332 39.6889 12.5587 39.7387 12.6446 39.7937C12.6807 39.8178 12.7065 39.8401 12.7237 39.8607C12.7392 39.8814 12.7443 39.9089 12.7375 39.9432L12.6567 40.3196C12.6361 40.4107 12.5845 40.4382 12.4986 40.4039C12.4057 40.3661 12.27 40.3282 12.0895 40.2921C11.909 40.2561 11.7457 40.2371 11.5996 40.2371C11.2112 40.2371 10.9895 40.3661 10.9345 40.6256C10.9139 40.7167 10.9293 40.7923 10.9757 40.8542C11.0239 40.9161 11.127 41.0003 11.2834 41.1086L11.8661 41.5039C12.0362 41.619 12.1634 41.7359 12.2493 41.8528C12.3336 41.9696 12.3851 42.0882 12.4023 42.2103C12.4195 42.3323 12.4109 42.4715 12.38 42.6297C12.337 42.8342 12.2493 43.0232 12.1187 43.1986C11.9881 43.3739 11.8042 43.5148 11.5687 43.6265C11.3315 43.7365 11.0428 43.7915 10.7025 43.7915C10.4739 43.7915 10.2711 43.7657 10.094 43.7125C9.91527 43.6609 9.79496 43.6128 9.72965 43.5681C9.68496 43.5371 9.65574 43.5131 9.64371 43.4959C9.63168 43.4787 9.62996 43.4529 9.63683 43.4186L9.71762 43.0421C9.73652 42.9579 9.78808 42.9287 9.87574 42.9579C10.2143 43.0782 10.5306 43.135 10.8245 43.135ZM13.9818 43.1728C14.1898 43.1728 14.4373 43.1298 14.7243 43.0456C14.8068 43.0232 14.8395 43.0542 14.8223 43.135L14.7484 43.4907C14.7398 43.5251 14.7243 43.5526 14.702 43.5732C14.6796 43.5939 14.6453 43.6145 14.5989 43.6351C14.3857 43.7417 14.1365 43.795 13.8495 43.795C13.602 43.795 13.3923 43.7486 13.2221 43.6557C13.052 43.5629 12.9334 43.4151 12.8681 43.214C12.8028 43.0129 12.8011 42.7568 12.8664 42.4475L12.9781 41.9301C13.0417 41.6276 13.1482 41.375 13.2995 41.1739C13.4507 40.9711 13.6312 40.8215 13.8426 40.727C14.054 40.6307 14.2843 40.5826 14.5318 40.5826C14.8171 40.5826 15.044 40.6359 15.2125 40.7425C15.2503 40.7631 15.2761 40.782 15.2898 40.8026C15.3036 40.8232 15.307 40.8507 15.2984 40.8851L15.2228 41.2409C15.2039 41.3217 15.1592 41.3526 15.087 41.3303C14.9736 41.2907 14.8687 41.2598 14.7742 41.2375C14.6796 41.2151 14.5628 41.2031 14.4236 41.2031C14.0489 41.2031 13.81 41.4454 13.7068 41.9301L13.5951 42.4475C13.5401 42.7104 13.5521 42.8961 13.6312 43.0078C13.7154 43.1178 13.8306 43.1728 13.9818 43.1728ZM16.8831 41.1911C16.5926 41.1911 16.2867 41.2392 15.967 41.3354C15.8845 41.3578 15.8518 41.3268 15.869 41.2461L15.9395 40.9075C15.9464 40.8731 15.9618 40.8456 15.9842 40.8232C16.0065 40.8009 16.0409 40.782 16.089 40.7631C16.2128 40.715 16.3606 40.672 16.5359 40.6359C16.7112 40.5998 16.8986 40.5809 17.0979 40.5809C17.3368 40.5809 17.5328 40.6204 17.6857 40.6978C17.8387 40.7751 17.9436 40.8954 18.0003 41.0553C18.057 41.2168 18.0621 41.4111 18.0123 41.6414L17.6084 43.5354C17.6015 43.575 17.5912 43.6025 17.5792 43.6196C17.5671 43.6351 17.5414 43.6489 17.5053 43.6575C17.3317 43.7021 17.165 43.7365 17.0068 43.7606C16.847 43.7846 16.6562 43.7967 16.4311 43.7967C16.1268 43.7967 15.8862 43.7657 15.7075 43.7021C15.5287 43.6386 15.4067 43.5389 15.3431 43.4031C15.2795 43.2673 15.2709 43.0868 15.319 42.8651L15.3242 42.8376C15.3603 42.6726 15.4136 42.5334 15.484 42.4165C15.5545 42.3014 15.6507 42.2034 15.7711 42.1243C15.8914 42.0453 16.0375 41.9851 16.2111 41.9473C16.3846 41.9078 16.5943 41.8889 16.8384 41.8889H17.2286L17.2801 41.6448C17.3162 41.4712 17.3025 41.3526 17.2389 41.289C17.1753 41.222 17.0567 41.1911 16.8831 41.1911ZM16.9484 43.1951L17.122 42.3736H16.7318C16.5634 42.3736 16.4362 42.389 16.3486 42.4182C16.2626 42.4475 16.199 42.4939 16.1595 42.5575C16.12 42.6193 16.089 42.707 16.0667 42.8187L16.0581 42.8514C16.0357 42.9562 16.0357 43.037 16.0581 43.092C16.0804 43.147 16.1268 43.1865 16.2025 43.2089C16.2764 43.2312 16.3915 43.2432 16.5462 43.2432C16.7043 43.2415 16.8367 43.2261 16.9484 43.1951ZM20.7743 43.6351C20.7692 43.6643 20.752 43.6901 20.7245 43.7159C20.7013 43.7381 20.6707 43.7509 20.6386 43.752H20.1264C20.0954 43.752 20.0731 43.74 20.0576 43.7159C20.0422 43.692 20.0367 43.663 20.0421 43.6351L20.4323 41.8012C20.4632 41.6551 20.4701 41.5382 20.4546 41.4506C20.4392 41.3647 20.3962 41.3011 20.3223 41.2615C20.2501 41.222 20.1436 41.2014 20.0026 41.2014C19.8325 41.2014 19.6468 41.222 19.444 41.2615L18.9387 43.6351C18.9336 43.6678 18.9181 43.6953 18.8906 43.7176C18.8648 43.74 18.8356 43.752 18.8029 43.752H18.2925C18.2598 43.752 18.2357 43.74 18.2203 43.7159C18.2049 43.692 18.1993 43.663 18.2048 43.6351L18.7961 40.8576C18.8064 40.8026 18.8528 40.7665 18.9318 40.7459C19.1278 40.6961 19.334 40.6548 19.5523 40.6256C19.7706 40.5964 19.9717 40.5809 20.1539 40.5809C20.5904 40.5809 20.8895 40.6771 21.0511 40.8696C21.2143 41.0621 21.2504 41.3715 21.1628 41.7961L20.7743 43.6351ZM24.5917 43.6557C24.5814 43.7125 24.5384 43.7451 24.4662 43.7554C24.3046 43.7812 24.1568 43.7932 24.0211 43.7932C23.8011 43.7932 23.6326 43.7709 23.5157 43.7262C23.3989 43.6815 23.3267 43.5973 23.294 43.4701C23.2614 43.3429 23.2717 43.1573 23.3232 42.9115L23.6928 41.167L23.2511 41.0879C23.1789 41.0759 23.1496 41.0381 23.1617 40.9762L23.2167 40.727C23.2221 40.6959 23.2386 40.6678 23.2631 40.6479C23.2889 40.6256 23.3181 40.6153 23.349 40.6153H23.8096L23.9076 40.1598C23.9196 40.0979 23.9661 40.0618 24.0434 40.0481L24.5779 39.9587H24.602C24.6604 39.9587 24.6828 39.9862 24.669 40.0429L24.547 40.6153H25.109C25.1434 40.6153 25.1692 40.6256 25.1846 40.6445C25.2001 40.6651 25.2053 40.6909 25.1984 40.7253L25.1279 41.0536C25.1211 41.0845 25.1039 41.1103 25.0781 41.1326C25.0523 41.155 25.0231 41.1653 24.9921 41.1653H24.4301L24.0606 42.9098C24.0314 43.0473 24.0245 43.1332 24.04 43.1676C24.0554 43.202 24.1121 43.2192 24.2101 43.2192H24.5659C24.6432 43.2192 24.6776 43.2467 24.6656 43.3034L24.5917 43.6557ZM27.8367 42.4114C27.78 42.6761 27.6786 42.9132 27.5307 43.1246C27.388 43.3319 27.1968 43.5012 26.9739 43.6179C26.7504 43.7348 26.4961 43.795 26.2125 43.795C25.9323 43.795 25.7037 43.7365 25.5267 43.6179C25.3496 43.5011 25.2345 43.3361 25.1778 43.1246C25.1211 42.9132 25.1211 42.6761 25.1778 42.4114L25.2723 41.9645C25.329 41.6998 25.4304 41.4626 25.5765 41.2512C25.7191 41.0431 25.911 40.8737 26.1351 40.7579C26.362 40.6411 26.6146 40.5809 26.8948 40.5809C27.1784 40.5809 27.407 40.6393 27.5806 40.7579C27.7542 40.8748 27.8693 41.0398 27.9261 41.2512C27.9828 41.4626 27.9828 41.6998 27.9278 41.9645L27.8367 42.4114ZM27.1045 42.4114L27.199 41.9645C27.2471 41.7325 27.2351 41.5503 27.1629 41.4145C27.089 41.2804 26.9567 41.2117 26.7625 41.2117C26.57 41.2117 26.4101 41.2787 26.2778 41.4145C26.1471 41.5486 26.0561 41.7325 26.0079 41.9645L25.9134 42.4114C25.8653 42.6434 25.8773 42.8256 25.9512 42.9614C26.0251 43.0954 26.1575 43.1642 26.3465 43.1642C26.539 43.1642 26.7006 43.0971 26.8329 42.9614C26.9653 42.8256 27.0546 42.6434 27.1045 42.4114ZM32.9929 40.9109C32.8967 41.3681 32.6784 41.6998 32.3398 41.9043C31.9995 42.1089 31.5921 42.212 31.1161 42.212C31.0868 42.212 31.0232 42.2103 30.9253 42.2051C30.8273 42.2 30.762 42.1982 30.7328 42.1948C30.7036 42.1931 30.6675 42.1914 30.6279 42.1896L30.322 43.6386C30.3151 43.6712 30.2979 43.697 30.2739 43.7193C30.2513 43.7386 30.2228 43.7496 30.1931 43.7503H29.6362C29.6087 43.7503 29.5864 43.74 29.5675 43.7176C29.5583 43.7069 29.552 43.694 29.549 43.6802C29.546 43.6664 29.5464 43.6521 29.5503 43.6386L30.3615 39.8161C30.3718 39.7628 30.3959 39.725 30.4303 39.7009C30.4664 39.6768 30.5145 39.6596 30.5746 39.6511C30.8892 39.6029 31.257 39.5771 31.6781 39.5771C32.1559 39.5771 32.5203 39.6768 32.7729 39.8762C33.0256 40.0756 33.1029 40.4039 33.005 40.8593L32.9929 40.9109ZM32.2246 40.9109L32.235 40.8628C32.2831 40.6307 32.2521 40.4657 32.1387 40.3661C32.0253 40.2664 31.8259 40.2165 31.5406 40.2165C31.3618 40.2165 31.1951 40.2251 31.0421 40.2406L30.7603 41.5623C30.9373 41.5726 31.1006 41.5778 31.2518 41.5778C31.4512 41.5778 31.6162 41.5537 31.7468 41.5056C31.8775 41.4575 31.9823 41.3853 32.0596 41.2873C32.137 41.1911 32.1937 41.0656 32.2246 40.9109ZM34.2029 41.1911C33.9125 41.1911 33.6065 41.2392 33.2868 41.3354C33.2043 41.3578 33.1717 41.3268 33.1889 41.2461L33.2593 40.9075C33.2662 40.8731 33.2817 40.8456 33.304 40.8232C33.3264 40.8009 33.3607 40.782 33.4089 40.7631C33.5326 40.715 33.6804 40.672 33.8557 40.6359C34.0311 40.5998 34.2184 40.5809 34.4178 40.5809C34.6567 40.5809 34.8526 40.6204 35.0056 40.6978C35.1586 40.7751 35.2634 40.8954 35.3201 41.0553C35.3768 41.2168 35.382 41.4111 35.3321 41.6414L34.9282 43.5354C34.9214 43.575 34.9111 43.6025 34.899 43.6196C34.887 43.6351 34.8612 43.6489 34.8251 43.6575C34.6515 43.7021 34.4848 43.7365 34.3267 43.7606C34.1668 43.7846 33.9761 43.7967 33.7509 43.7967C33.4467 43.7967 33.2061 43.7657 33.0273 43.7021C32.8486 43.6386 32.7265 43.5389 32.6629 43.4031C32.5993 43.2673 32.5907 43.0868 32.6389 42.8651L32.644 42.8376C32.6801 42.6726 32.7334 42.5334 32.8039 42.4165C32.8743 42.3014 32.9706 42.2034 33.0909 42.1243C33.2112 42.0453 33.3573 41.9851 33.5309 41.9473C33.7045 41.9078 33.9142 41.8889 34.1582 41.8889H34.5484L34.6 41.6448C34.636 41.4712 34.6223 41.3526 34.5587 41.289C34.4951 41.222 34.3765 41.1911 34.2029 41.1911ZM34.2682 43.1951L34.4418 42.3736H34.0517C33.8832 42.3736 33.7561 42.389 33.6684 42.4182C33.5825 42.4475 33.5189 42.4939 33.4793 42.5575C33.4398 42.6193 33.4089 42.707 33.3865 42.8187L33.3779 42.8514C33.3556 42.9562 33.3556 43.037 33.3779 43.092C33.4003 43.147 33.4467 43.1865 33.5223 43.2089C33.5962 43.2312 33.7114 43.2432 33.8661 43.2432C34.0242 43.2415 34.1582 43.2261 34.2682 43.1951ZM38.7954 40.7132C38.7929 40.7249 38.7882 40.7359 38.7817 40.7459L37.1626 43.9909C37.0561 44.2075 36.9495 44.3776 36.8446 44.5014C36.7398 44.6251 36.6075 44.7162 36.451 44.7746C36.2946 44.8348 36.0936 44.864 35.8478 44.864C35.7532 44.864 35.6501 44.8571 35.5384 44.8417C35.4267 44.8279 35.339 44.8107 35.2754 44.7901C35.2015 44.7695 35.1689 44.7386 35.1775 44.6956L35.2531 44.3398C35.2582 44.3123 35.2737 44.29 35.3012 44.2693C35.327 44.2487 35.3562 44.2401 35.3871 44.2401H35.3975C35.4456 44.2418 35.5487 44.2487 35.7034 44.259C35.8581 44.2693 35.9629 44.2745 36.0162 44.2745C36.097 44.2745 36.1675 44.2642 36.2276 44.2453C36.2878 44.2246 36.3411 44.1903 36.3892 44.1387C36.4373 44.0872 36.4854 44.0132 36.5318 43.917L36.6109 43.752H36.5301C36.4665 43.752 36.4081 43.7417 36.3548 43.7228C36.3015 43.7022 36.2551 43.6592 36.2156 43.5904C36.1761 43.5217 36.152 43.422 36.1417 43.2914L35.9578 40.7476C35.9556 40.7349 35.9568 40.7219 35.9612 40.7098C35.9732 40.6496 36.0162 40.6204 36.0867 40.6204H36.6487C36.6745 40.6204 36.6951 40.6307 36.7106 40.6496C36.7261 40.6703 36.7329 40.6926 36.7329 40.7201L36.8137 42.9803C36.8137 43.0611 36.8292 43.1023 36.8618 43.1023H36.9134L38.0203 40.715C38.0478 40.6514 38.0925 40.6204 38.1526 40.6204H38.7198C38.7456 40.6204 38.7662 40.629 38.7817 40.6496C38.7954 40.6651 38.8006 40.6875 38.7954 40.7132Z" fill="#099DD9" />
	<path fill-rule="evenodd" clip-rule="evenodd" d="M33.371 34.2974L30.4663 30.1329L30.1707 29.8613H33.0341L34.9746 33.0101L35.131 32.8829L36.3032 31.1401C36.5919 30.7121 36.5524 30.2137 36.1416 29.863H38.8469L35.7205 34.2974L35.7188 37.5149L36.2705 38.1698H32.9086L33.383 37.5235C33.3813 36.4527 33.3418 35.3682 33.371 34.2974ZM25.4836 29.863C25.7157 30.181 25.7844 30.2927 25.8102 30.5763C25.8291 30.774 25.8154 30.8857 25.7518 31.0696L23.5913 37.3345C23.4899 37.5923 23.2819 37.8759 22.9777 38.1526H25.3358C25.1605 37.9979 25.0488 37.8123 25.0075 37.5923C24.9697 37.3912 24.9714 37.3155 25.0161 37.123L25.4957 35.6346H28.2388L28.6668 36.781C28.7114 36.9013 28.7372 37.013 28.7475 37.142C28.7854 37.5699 28.6479 37.9223 28.3075 38.1715H32.0029C31.6402 37.8484 31.3068 37.5098 31.1194 37.1007L28.421 29.863H25.4836ZM27.8349 34.5552H25.8721L26.8243 31.843L27.8349 34.5552ZM18.0088 29.8699L19.8668 29.863H22.1218C23.3627 29.863 24.3768 30.8771 24.3768 32.118V32.3965C24.3768 33.6374 23.361 34.5827 22.1218 34.6205L21.0939 34.6515C21.9207 34.2716 22.2661 33.3109 22.163 32.4446C22.0805 31.7502 21.723 31.0816 21.1266 31.0696L20.7502 31.061V37.2434C20.7502 37.3637 20.7708 37.4135 20.8344 37.5201C20.9358 37.6885 21.0699 37.857 21.2091 38.0237C21.2452 38.0666 21.2813 38.1113 21.3174 38.1543H18.1188C18.1669 38.0959 18.2133 38.0357 18.258 37.9755C18.3543 37.8432 18.4402 37.704 18.5055 37.5476C18.5468 37.4479 18.5674 37.3723 18.5674 37.2657V30.6245C18.5554 30.279 18.2116 30.0813 18.0088 29.8699Z" fill="#085CA8" />
	<path fill-rule="evenodd" clip-rule="evenodd" d="M0.666504 29.8252H3.24807L5.41541 36.0402L7.25275 30.8925C7.28713 30.6932 7.25791 30.6279 7.18057 30.456C7.07916 30.2463 6.97088 30.0435 6.86775 29.8355H8.79619C8.68104 30.2549 8.5126 30.7172 8.36822 31.14L5.87775 38.3777C5.19713 38.2419 4.44088 37.9738 3.85307 37.4169C3.41135 36.9993 3.25494 36.5232 3.03666 35.9577L0.953535 30.4422C0.874473 30.2239 0.774785 30.0297 0.666504 29.8252ZM10.9756 32.7385V37.1797C10.9756 37.3602 11.0168 37.3929 11.1285 37.5372L11.6373 38.2007H9.20697L9.61775 37.5733C9.7226 37.4014 9.769 37.343 9.769 37.1419V30.9389L9.08494 29.8286H11.6046L15.6832 35.0811V30.8943C15.6832 30.6949 15.6437 30.6296 15.5371 30.4577C15.3996 30.248 15.257 30.0452 15.1212 29.8372H17.5498L17.0428 30.5007C16.931 30.645 16.8898 30.6777 16.8898 30.8582V38.4138C15.9703 38.2935 15.1143 38.0683 14.3512 37.0938L10.9756 32.7385Z" fill="#EB2227" />
	<path fill-rule="evenodd" clip-rule="evenodd" d="M38.6597 31.8715C38.6597 31.6928 38.6854 31.5157 38.7336 31.3456C38.7851 31.1771 38.8556 31.0139 38.9519 30.854C39.1306 30.5498 39.3901 30.3075 39.7253 30.1287C40.0639 29.95 40.4523 29.8623 40.9026 29.8623C41.0848 29.8623 41.2584 29.8829 41.4148 29.9276C41.5747 29.9723 41.7311 30.0411 41.8892 30.1321C42.1848 30.3023 42.4186 30.5446 42.5887 30.8575C42.6764 31.0225 42.7451 31.1926 42.7933 31.3696C42.8379 31.5484 42.862 31.7426 42.862 31.9489C42.862 32.2325 42.8001 32.5264 42.6747 32.8271C42.5492 33.1262 42.3704 33.3806 42.1367 33.5868L42.4272 33.8653C42.544 33.9753 42.6661 34.0784 42.7967 34.1746C42.9273 34.2709 43.0717 34.3534 43.2315 34.4256C43.3914 34.4995 43.5581 34.5425 43.7283 34.5562C43.577 34.6817 43.4154 34.7779 43.2487 34.8467C43.0786 34.9154 42.9015 34.9464 42.7176 34.9464C42.5612 34.9464 42.4014 34.9154 42.2433 34.8467C42.0817 34.7814 41.9304 34.6989 41.7878 34.6026C41.6365 34.4995 41.5008 34.3946 41.3787 34.295L41.0539 34.0217C41.0315 34.0217 41.0023 34.0217 40.9662 34.0251C40.9301 34.0286 40.8872 34.0337 40.8356 34.0423L40.6431 34.0595C40.2701 34.0595 39.9333 33.9598 39.629 33.7673C39.3248 33.5748 39.0859 33.3101 38.9192 32.9767C38.8367 32.8117 38.7714 32.6381 38.7284 32.4542C38.6837 32.2634 38.6597 32.0726 38.6597 31.8715ZM39.8112 31.8836C39.8112 32.0107 39.825 32.1448 39.8559 32.2823C39.8783 32.3786 39.9126 32.5006 39.9642 32.6484C40.0433 32.8821 40.1601 33.0746 40.3131 33.2225C40.4644 33.3737 40.6517 33.4476 40.8734 33.4476C41.1604 33.4476 41.3736 33.3342 41.5094 33.1073C41.6451 32.8804 41.7173 32.59 41.7173 32.2342C41.7173 32.1431 41.7053 31.9953 41.6881 31.7959C41.6675 31.6481 41.64 31.5123 41.6056 31.3903C41.5712 31.2631 41.5317 31.1514 41.487 31.0551C41.4011 30.8626 41.2876 30.7165 41.1398 30.6203C40.9954 30.5206 40.8219 30.4725 40.6259 30.4725C40.5348 30.4725 40.4489 30.4896 40.3698 30.524C40.2925 30.555 40.2186 30.6031 40.1533 30.6667C40.0347 30.7801 39.9453 30.9279 39.892 31.1067C39.8387 31.2854 39.8095 31.4814 39.8095 31.6928V31.8011C39.8095 31.8354 39.8112 31.8595 39.8112 31.8836ZM44.3745 31.9248C44.4955 31.9064 44.6111 31.8619 44.7131 31.7942C44.8128 31.7254 44.8901 31.6343 44.9469 31.5243C44.9761 31.4711 44.995 31.4161 45.0122 31.3593C45.0259 31.3026 45.0328 31.2425 45.0328 31.1823C45.0328 30.9984 44.9847 30.8437 44.8815 30.7182C44.7819 30.5962 44.6289 30.5343 44.4244 30.5343H44.3762V31.9248H44.3745ZM44.3745 32.2462V33.3754C44.3745 33.6573 44.4622 33.8481 44.6358 33.9461V33.9718H42.9978V33.9461C43.1628 33.8515 43.2487 33.6642 43.2487 33.384V30.6203C43.2487 30.4518 43.2315 30.3195 43.204 30.225C43.1731 30.1287 43.1044 30.0428 42.9995 29.9689V29.9568H44.9864C45.2081 29.9568 45.4075 29.9964 45.5828 30.0789C45.7598 30.1614 45.899 30.28 46.0005 30.445C46.0537 30.524 46.0915 30.6151 46.1173 30.7148C46.1465 30.8111 46.1603 30.9193 46.1603 31.0311C46.1603 31.1823 46.1122 31.3439 46.0125 31.5226C45.9162 31.6996 45.7289 31.8578 45.447 31.9953L46.2342 33.3221C46.4215 33.6092 46.5917 33.8137 46.7464 33.9357L46.0554 33.9873L45.8819 33.9925H45.7203C45.5639 33.9925 45.4419 33.9667 45.3508 33.9134C45.2631 33.8618 45.1772 33.7604 45.0998 33.6092L44.3745 32.2462Z" fill="#EB2227" />
</svg>