<svg width="48" height="49" viewBox="0 0 48 49" fill="none" xmlns="http://www.w3.org/2000/svg">
<rect y="0.873047" width="48" height="48" rx="24" fill="#000083"/>
<path d="M24.007 38.873C23.7795 38.8744 23.5559 38.816 23.3584 38.7043C21.6656 37.724 9.12913 29.8579 8.65573 29.6179C8.47849 29.5353 8.32559 29.4082 8.21187 29.249C8.09814 29.0898 8.02745 28.904 8.00663 28.7094V17.6757C8.00219 17.4731 8.04933 17.2728 8.14362 17.0934C8.2379 16.9141 8.37622 16.7618 8.54557 16.6507L8.63578 16.5989C9.84898 15.8458 13.9088 13.3663 14.5512 13.0094C14.6985 12.922 14.8662 12.8749 15.0374 12.873C15.1979 12.8749 15.3556 12.9149 15.498 12.9899C15.498 12.9899 21.1789 16.6959 22.0483 17.0266C22.658 17.3068 23.3228 17.4465 23.9937 17.4353C24.7541 17.4512 25.5055 17.2677 26.1732 16.9031C27.0222 16.4559 32.4509 13.0099 32.5088 13.0099C32.6456 12.9272 32.8032 12.8845 32.9628 12.8864C33.1342 12.8873 33.3023 12.9343 33.449 13.0227C34.1883 13.4314 39.221 16.5144 39.4352 16.6507C39.6091 16.7558 39.7527 16.9045 39.8516 17.0821C39.9506 17.2597 40.0015 17.46 39.9993 17.6633V28.6966C39.9798 28.8914 39.9097 29.0778 39.796 29.2371C39.6823 29.3965 39.529 29.5234 39.3511 29.6051C38.8777 29.8646 26.3802 37.7307 24.6551 38.6915C24.4587 38.8081 24.2354 38.8707 24.007 38.873Z" fill="url(#paint0_linear_11201_27257)"/>
<path d="M23.9419 38.8734H24.0069C24.2339 38.8748 24.458 38.8164 24.6551 38.7047C26.3479 37.7244 38.8782 29.8583 39.3511 29.6183C39.529 29.5366 39.6825 29.4098 39.7962 29.2504C39.91 29.0911 39.9802 28.9047 39.9997 28.7098V17.6761C40.0018 17.4894 39.9597 17.3049 39.8767 17.1377L23.9419 25.8929V38.8734Z" fill="url(#paint1_linear_11201_27257)"/>
<path d="M23.8867 38.7171H23.8224C23.5978 38.7185 23.3761 38.6606 23.1811 38.5502C21.5064 37.5803 9.10956 29.798 8.64166 29.5606C8.46565 29.4798 8.31382 29.3543 8.20125 29.1966C8.08868 29.0389 8.01928 28.8545 7.99996 28.6617V17.7455C7.99785 17.5609 8.03955 17.3783 8.12163 17.2129L23.8867 25.8748V38.7171Z" fill="url(#paint2_linear_11201_27257)"/>
<path d="M19.6099 23.1025H20.3673V26.8721H21.6729V27.6162H19.613L19.6099 23.1025ZM23.427 24.2334C23.625 24.2308 23.8208 24.2757 23.9992 24.3644C24.1776 24.4531 24.3338 24.5833 24.4555 24.7448V24.3006H25.1621V27.6228H24.4555V27.1785C24.3338 27.34 24.1776 27.4702 23.9992 27.5589C23.8207 27.6477 23.6249 27.6925 23.4269 27.6899C22.5459 27.6899 21.8773 26.9114 21.8773 25.9609C21.8773 25.0102 22.546 24.2334 23.427 24.2334ZM23.5554 24.8988C22.9833 24.8988 22.6046 25.3643 22.6046 25.9609C22.6046 26.5574 22.9896 27.0245 23.5554 27.0245C24.1211 27.0245 24.5061 26.559 24.5061 25.9609C24.5061 25.3626 24.1273 24.8988 23.5554 24.8988ZM25.7119 27.0459L27.3963 24.9644H25.7372V24.3006H28.3089V24.8857L26.631 26.959H28.3469V27.6228H25.7119V27.0459Z" fill="white"/>
<defs>
<linearGradient id="paint0_linear_11201_27257" x1="7.98717" y1="13.1106" x2="39.6864" y2="12.8653" gradientUnits="userSpaceOnUse">
<stop stop-color="#FFB900"/>
<stop offset="0.338" stop-color="#F38000"/>
<stop offset="0.567" stop-color="#F83C72"/>
<stop offset="0.78" stop-color="#FC1CBE"/>
<stop offset="0.93" stop-color="#FE08ED"/>
<stop offset="1" stop-color="#FF00FF"/>
</linearGradient>
<linearGradient id="paint1_linear_11201_27257" x1="16.8926" y1="36.1601" x2="49.2226" y2="18.2727" gradientUnits="userSpaceOnUse">
<stop stop-color="#EE0A3F"/>
<stop offset="1" stop-color="#EE0A3F" stop-opacity="0"/>
</linearGradient>
<linearGradient id="paint2_linear_11201_27257" x1="20.0379" y1="31.4927" x2="4.4117" y2="18.9142" gradientUnits="userSpaceOnUse">
<stop stop-color="#ED6600"/>
<stop offset="1" stop-color="#F98200"/>
</linearGradient>
</defs>
</svg>
