<svg width="65" height="40" viewBox="0 0 65 40" fill="none" xmlns="http://www.w3.org/2000/svg">
<rect x="0.5" y="0.873047" width="64" height="38" rx="2.7" fill="#645068"/>
<rect x="0.5" y="0.873047" width="64" height="38" rx="2.7" stroke="#645068"/>
<g clip-path="url(#clip0_11201_27267)">
<rect width="16" height="16" transform="translate(9 11.873)" fill="white" fill-opacity="0.01"/>
<g clip-path="url(#clip1_11201_27267)">
<path d="M24.8533 12.0185C24.9947 12.16 25.0383 12.3721 24.964 12.5578L19.1451 27.1049C18.9182 27.6723 18.1442 27.7446 17.816 27.229L14.6376 22.2343L9.64283 19.0558C9.12722 18.7277 9.19949 17.9537 9.76695 17.7267L24.3141 11.9078C24.4998 11.8336 24.7119 11.8771 24.8533 12.0185ZM15.6369 21.942L18.3978 26.2806L23.1308 14.4481L15.6369 21.942ZM22.4237 13.741L10.5912 18.474L14.9298 21.2349L22.4237 13.741Z" fill="white"/>
</g>
</g>
<g clip-path="url(#clip2_11201_27267)">
<rect width="23" height="21" transform="translate(33 9.37305)" fill="white" fill-opacity="0.01"/>
<path d="M41.1932 18.373C41.0838 18.0383 40.9396 17.7383 40.7607 17.4732C40.585 17.2047 40.3745 16.976 40.1293 16.7871C39.8873 16.5982 39.6122 16.454 39.304 16.3546C38.9957 16.2551 38.6577 16.2054 38.2898 16.2054C37.6866 16.2054 37.138 16.3612 36.6442 16.6728C36.1503 16.9843 35.7576 17.4434 35.4659 18.0499C35.1742 18.6564 35.0284 19.4005 35.0284 20.2821C35.0284 21.1638 35.1759 21.9078 35.4709 22.5144C35.7659 23.1209 36.1652 23.58 36.669 23.8915C37.1728 24.2031 37.7396 24.3588 38.3693 24.3588C38.9527 24.3588 39.4664 24.2346 39.9105 23.986C40.358 23.7341 40.706 23.3794 40.9545 22.9221C41.2064 22.4614 41.3324 21.9194 41.3324 21.2963L41.7102 21.3759H38.6477V20.2821H42.5256V21.3759C42.5256 22.2144 42.3466 22.9436 41.9886 23.5634C41.634 24.1832 41.1435 24.6638 40.517 25.0051C39.8939 25.3432 39.178 25.5123 38.3693 25.5123C37.4678 25.5123 36.6757 25.3001 35.9929 24.8759C35.3134 24.4516 34.7831 23.8484 34.402 23.0662C34.0241 22.284 33.8352 21.356 33.8352 20.2821C33.8352 19.4767 33.9429 18.7525 34.1584 18.1096C34.3771 17.4632 34.6854 16.9131 35.0831 16.459C35.4808 16.0049 35.9515 15.6569 36.495 15.415C37.0386 15.173 37.6368 15.052 38.2898 15.052C38.8267 15.052 39.3272 15.1332 39.7912 15.2956C40.2585 15.4547 40.6745 15.6818 41.0391 15.9767C41.407 16.2684 41.7135 16.6181 41.9588 17.0257C42.2041 17.4301 42.3731 17.8792 42.4659 18.373H41.1932ZM51.3588 17.3986H52.3929C52.3929 17.9024 52.3266 18.325 52.1941 18.6664C52.0615 19.0044 51.8295 19.2596 51.498 19.432C51.1666 19.601 50.7026 19.6855 50.106 19.6855V18.8702C50.517 18.8702 50.8087 18.8205 50.981 18.7211C51.1567 18.6183 51.2627 18.4592 51.2992 18.2438C51.339 18.025 51.3588 17.7433 51.3588 17.3986ZM49.2907 22.2509V17.7367H50.464V25.373H49.2907V24.0804H49.2111C49.0321 24.4682 48.7537 24.798 48.3759 25.0698C47.998 25.3382 47.5208 25.4725 46.9441 25.4725C46.4668 25.4725 46.0426 25.3681 45.6713 25.1593C45.3001 24.9471 45.0085 24.629 44.7963 24.2047C44.5842 23.7772 44.4782 23.2386 44.4782 22.589V17.7367H45.6515V22.5094C45.6515 23.0662 45.8072 23.5104 46.1188 23.8418C46.4337 24.1732 46.8347 24.339 47.3219 24.339C47.6136 24.339 47.9102 24.2644 48.2118 24.1152C48.5167 23.9661 48.772 23.7374 48.9775 23.4292C49.1863 23.1209 49.2907 22.7282 49.2907 22.2509ZM47.998 16.7026H47.0236V15.6287C47.3716 15.6088 47.6169 15.5608 47.7594 15.4846C47.9052 15.4083 47.9782 15.2907 47.9782 15.1316C47.9782 14.9526 47.8738 14.8217 47.665 14.7388C47.4561 14.656 47.2026 14.6145 46.9043 14.6145L46.9441 13.8588C47.6301 13.8588 48.1489 13.9782 48.5002 14.2168C48.8548 14.4554 49.0321 14.7736 49.0321 15.1713C49.0321 15.5094 48.9244 15.7563 48.709 15.9121C48.4935 16.0679 48.2566 16.1657 47.998 16.2054V16.7026ZM53.1871 25.373V17.7367H54.3604V25.373H53.1871ZM53.7837 16.464C53.555 16.464 53.3578 16.3861 53.1921 16.2303C53.0297 16.0745 52.9485 15.8873 52.9485 15.6685C52.9485 15.4498 53.0297 15.2625 53.1921 15.1067C53.3578 14.9509 53.555 14.873 53.7837 14.873C54.0124 14.873 54.208 14.9509 54.3704 15.1067C54.5361 15.2625 54.619 15.4498 54.619 15.6685C54.619 15.8873 54.5361 16.0745 54.3704 16.2303C54.208 16.3861 54.0124 16.464 53.7837 16.464Z" fill="white"/>
</g>
<defs>
<clipPath id="clip0_11201_27267">
<rect width="16" height="16" fill="white" transform="translate(9 11.873)"/>
</clipPath>
<clipPath id="clip1_11201_27267">
<rect width="16" height="16" fill="white" transform="translate(9 11.873)"/>
</clipPath>
<clipPath id="clip2_11201_27267">
<rect width="23" height="21" fill="white" transform="translate(33 9.37305)"/>
</clipPath>
</defs>
</svg>
