<svg width="48" height="49" viewBox="0 0 48 49" fill="none" xmlns="http://www.w3.org/2000/svg">
<rect y="0.873047" width="48" height="48" rx="24" fill="#EA501F"/>
<path d="M12.1113 40.0966C11.9993 40.0185 11.9642 39.8623 12.0413 39.7416C12.1183 39.628 12.2723 39.5925 12.3913 39.6706C12.4614 39.7203 12.5384 39.77 12.6224 39.8197C13.1965 40.1747 13.7357 40.3522 14.1768 40.3522C14.5759 40.3522 14.9049 40.196 15.108 39.8907C15.122 39.8694 15.136 39.8552 15.136 39.841C15.192 39.7416 15.241 39.6422 15.269 39.5428C15.325 39.3369 15.318 39.1238 15.234 38.9321C15.15 38.7262 14.975 38.5345 14.7089 38.3712C14.5338 38.2647 14.3098 38.1653 14.0437 38.0872C13.3646 37.8954 12.8675 37.6185 12.5944 37.2564C12.3003 36.8517 12.2793 36.3688 12.5944 35.7795C12.8044 35.3889 13.2315 35.1475 13.7777 35.1049C14.2468 35.0694 14.8139 35.183 15.388 35.4812C15.5141 35.5452 15.5631 35.7014 15.5001 35.8221C15.4371 35.9499 15.283 35.9996 15.164 35.9357C14.6739 35.6801 14.2048 35.5878 13.8197 35.6162C13.4486 35.6446 13.1615 35.7937 13.0425 36.028C12.8324 36.4185 12.8324 36.7238 13.0075 36.9582C13.2035 37.228 13.6166 37.441 14.1838 37.6043C14.4918 37.6895 14.7509 37.8102 14.9679 37.9451C15.325 38.1653 15.5631 38.4422 15.6891 38.7404C15.8221 39.0457 15.8362 39.3795 15.7451 39.6919C15.7031 39.8339 15.6401 39.983 15.5561 40.1179C15.5351 40.1463 15.5211 40.1747 15.5141 40.1889C15.213 40.6434 14.7369 40.8706 14.1628 40.8706C13.6306 40.8706 13.0075 40.6718 12.3493 40.267C12.2863 40.2102 12.2023 40.1605 12.1113 40.0966Z" fill="white"/>
<path d="M16.5854 35.3469C16.5854 35.212 16.6975 35.1055 16.8375 35.1055C16.9775 35.1055 17.0896 35.212 17.0896 35.3469V40.6226C17.0896 40.7575 16.9775 40.864 16.8375 40.864C16.6975 40.864 16.5854 40.7575 16.5854 40.6226V35.3469Z" fill="white"/>
<path d="M17.1034 38.6344C17.0124 38.7409 16.8583 38.7622 16.7463 38.6699C16.6413 38.5776 16.6203 38.4214 16.7113 38.3078C17.0964 37.832 17.5305 37.5409 17.9576 37.4131C18.2657 37.3208 18.5667 37.3137 18.8258 37.3847C19.0989 37.4628 19.3369 37.619 19.505 37.8604C19.666 38.0876 19.757 38.3788 19.757 38.7267V40.6154C19.757 40.7575 19.645 40.8711 19.505 40.8711C19.3649 40.8711 19.2529 40.7575 19.2529 40.6154V38.7267C19.2529 38.4853 19.1969 38.2936 19.0989 38.1515C19.0008 38.0166 18.8678 37.9243 18.6998 37.8746C18.5247 37.8249 18.3217 37.832 18.1046 37.8959C17.7686 38.0024 17.4185 38.2439 17.1034 38.6344Z" fill="white"/>
<path d="M22.2288 37.335C22.7119 37.335 23.146 37.5338 23.461 37.8533C23.7761 38.1728 23.9722 38.6131 23.9722 39.103C23.9722 39.5929 23.7761 40.0332 23.461 40.3527C23.146 40.6722 22.7119 40.871 22.2288 40.871C21.7456 40.871 21.3115 40.6722 20.9965 40.3527C20.6814 40.0332 20.4854 39.5929 20.4854 39.103C20.4854 38.6131 20.6814 38.1728 20.9965 37.8533C21.3115 37.5338 21.7526 37.335 22.2288 37.335ZM23.111 38.2083C22.8869 37.9811 22.5718 37.8391 22.2288 37.8391C21.8857 37.8391 21.5776 37.9811 21.3466 38.2083C21.1225 38.4355 20.9825 38.7551 20.9825 39.103C20.9825 39.4509 21.1225 39.7705 21.3466 39.9977C21.5706 40.2249 21.8857 40.3669 22.2288 40.3669C22.5718 40.3669 22.8799 40.2249 23.111 39.9977C23.335 39.7705 23.4751 39.4509 23.4751 39.103C23.4751 38.7551 23.335 38.4355 23.111 38.2083Z" fill="white"/>
<path d="M24.686 37.5906C24.686 37.4486 24.7981 37.335 24.9381 37.335C25.0781 37.335 25.1902 37.4486 25.1902 37.5906V37.9101C25.2112 37.8888 25.2252 37.8675 25.2462 37.8533C25.5612 37.5338 25.9953 37.335 26.4785 37.335C26.9616 37.335 27.3957 37.5338 27.7107 37.8533C28.0258 38.1728 28.2219 38.6131 28.2219 39.103C28.2219 39.5929 28.0258 40.0332 27.7107 40.3527C27.3957 40.6722 26.9616 40.871 26.4785 40.871C25.9953 40.871 25.5612 40.6722 25.2462 40.3527C25.2252 40.3314 25.2112 40.3101 25.1902 40.2959V42.6178C25.1902 42.7598 25.0781 42.8734 24.9381 42.8734C24.7981 42.8734 24.686 42.7598 24.686 42.6178V37.5906ZM27.3537 38.2083C27.1296 37.9811 26.8145 37.8391 26.4715 37.8391C26.1284 37.8391 25.8203 37.9811 25.5892 38.2083C25.3652 38.4355 25.2252 38.7551 25.2252 39.103C25.2252 39.4509 25.3652 39.7705 25.5892 39.9977C25.8133 40.2249 26.1284 40.3669 26.4715 40.3669C26.8145 40.3669 27.1226 40.2249 27.3537 39.9977C27.5777 39.7705 27.7177 39.4509 27.7177 39.103C27.7177 38.7551 27.5777 38.4355 27.3537 38.2083Z" fill="white"/>
<path d="M30.5886 37.335C31.0157 37.335 31.4078 37.5054 31.6949 37.8036C31.9329 38.045 32.031 38.2864 32.115 38.5421C32.332 39.2592 31.9189 39.2308 31.7929 39.2308H29.4754C29.4964 39.4012 29.5384 39.5574 29.5874 39.6995C29.6784 39.9196 29.8114 40.0829 29.9795 40.1965C30.1545 40.3101 30.3786 40.3669 30.6376 40.3669C30.9177 40.3669 31.2468 40.2888 31.6109 40.1326C31.7369 40.0758 31.8839 40.1397 31.9399 40.2675C31.9959 40.3953 31.9329 40.5444 31.8069 40.6012C31.3868 40.7787 30.9947 40.8639 30.6446 40.871C30.2875 40.8781 29.9725 40.7929 29.7134 40.6225C29.4544 40.4521 29.2303 40.2178 29.1253 39.8912C28.8872 39.174 28.8802 38.464 29.4824 37.8036C29.7624 37.4983 30.1615 37.335 30.5886 37.335ZM31.3448 38.1657C31.1417 37.9669 30.8757 37.8462 30.5886 37.8462C30.3016 37.8462 30.0355 37.9669 29.8324 38.1657C29.6854 38.3148 29.5664 38.4995 29.5034 38.7125H31.6809C31.6039 38.4995 31.4918 38.3148 31.3448 38.1657Z" fill="white"/>
<path d="M34.4119 37.335C34.839 37.335 35.2311 37.5054 35.5181 37.8036C35.7562 38.045 35.8542 38.2864 35.9382 38.5421C36.1553 39.2592 35.7422 39.2308 35.6161 39.2308H33.2986C33.3196 39.4012 33.3616 39.5574 33.4106 39.6995C33.5016 39.9196 33.6347 40.0829 33.8027 40.1965C33.9778 40.3101 34.2018 40.3669 34.4609 40.3669C34.7409 40.3669 35.07 40.2888 35.4341 40.1326C35.5601 40.0758 35.7072 40.1397 35.7632 40.2675C35.8192 40.3953 35.7562 40.5444 35.6301 40.6012C35.2101 40.7787 34.818 40.8639 34.4679 40.871C34.1108 40.8781 33.7957 40.7929 33.5367 40.6225C33.2776 40.4521 33.0535 40.2178 32.9485 39.8912C32.7105 39.174 32.7035 38.464 33.3056 37.8036C33.5857 37.4983 33.9848 37.335 34.4119 37.335ZM35.168 38.1657C34.965 37.9669 34.6989 37.8462 34.4119 37.8462C34.1248 37.8462 33.8587 37.9669 33.6557 38.1657C33.5087 38.3148 33.3896 38.4995 33.3266 38.7125H35.5041C35.4271 38.4995 35.3151 38.3148 35.168 38.1657Z" fill="white"/>
<path d="M13.8826 14.2505H19.1548C19.3159 12.4399 19.813 10.8139 20.5272 9.55706C21.4724 7.89553 22.8167 6.87305 24.3361 6.87305C25.8554 6.87305 27.1927 7.90263 28.145 9.55706C28.8591 10.8068 29.3562 12.4399 29.5173 14.2505H34.7825C35.4057 14.2505 35.9658 14.7689 35.9168 15.4008L34.8595 30.3617C34.7265 32.2363 33.5642 33.3085 31.8768 33.3085H16.7953C14.9189 33.3085 13.9246 31.9807 13.8126 30.3617L12.7483 15.4079C12.7063 14.776 13.2595 14.2505 13.8826 14.2505ZM20.4712 14.2505H28.187C28.0329 12.6813 27.6058 11.2896 26.9967 10.2245C26.2965 8.98192 25.3443 8.20795 24.3361 8.20795C23.3208 8.20795 22.3756 8.98192 21.6614 10.2316C21.0523 11.2896 20.6322 12.6884 20.4712 14.2505Z" fill="white"/>
<path d="M20.5062 28.061C20.2611 27.8906 20.1981 27.5569 20.3661 27.3083C20.5342 27.0598 20.8633 26.9959 21.1083 27.1663C21.2623 27.2728 21.4234 27.3794 21.5984 27.4859C22.8307 28.2456 23.965 28.622 24.9102 28.622C25.7644 28.622 26.4576 28.2953 26.8987 27.635C26.9267 27.5853 26.9547 27.5569 26.9617 27.5356C27.0877 27.3296 27.1787 27.1095 27.2417 26.8965C27.3678 26.4563 27.3468 26.0018 27.1717 25.59C26.9827 25.1569 26.6186 24.7379 26.0515 24.39C25.6734 24.1557 25.2043 23.9498 24.6371 23.7936C23.1948 23.3817 22.1305 22.7995 21.5564 22.0184C20.9263 21.1592 20.8773 20.1226 21.5494 18.8658C21.9975 18.035 22.9147 17.5167 24.077 17.4243C25.0782 17.3462 26.2825 17.5877 27.5078 18.2196C27.7739 18.3545 27.8789 18.6812 27.7389 18.951C27.5988 19.2208 27.2838 19.3273 27.0177 19.1853C25.9744 18.6456 24.9802 18.4397 24.154 18.5036C23.3628 18.5675 22.7607 18.88 22.4946 19.377C22.0465 20.2078 22.0535 20.861 22.4176 21.3581C22.8377 21.9332 23.7129 22.3805 24.9312 22.7285C25.5894 22.9202 26.1495 23.1616 26.6116 23.4456C27.3748 23.9143 27.8859 24.5036 28.159 25.1427C28.439 25.803 28.474 26.4989 28.285 27.1805C28.201 27.4859 28.0679 27.7912 27.8859 28.0894C27.8439 28.1533 27.8159 28.203 27.7949 28.2385C27.1437 29.2113 26.1425 29.6941 24.9242 29.7012C23.7829 29.7012 22.4526 29.2752 21.0523 28.4089C20.8773 28.3095 20.6952 28.1959 20.5062 28.061Z" fill="#EA501F"/>
</svg>
