<svg width="48" height="49" viewBox="0 0 48 49" fill="none" xmlns="http://www.w3.org/2000/svg">
<rect y="0.873047" width="48" height="48" rx="24" fill="#26AAE1"/>
<path d="M19.5081 36.8732C18.6116 36.8732 17.8848 36.1745 17.8848 35.3126V23.173C17.8848 22.3111 18.6115 21.6123 19.5081 21.6123C20.4045 21.6123 21.1313 22.311 21.1313 23.173V35.3127C21.1313 36.1745 20.4045 36.8732 19.5081 36.8732Z" fill="white"/>
<path d="M38.1525 36.8732C37.2559 36.8732 36.5293 36.1745 36.5293 35.3126V23.173C36.5293 22.3111 37.2559 21.6123 38.1525 21.6123C39.049 21.6123 39.7757 22.311 39.7757 23.173V35.3127C39.7758 36.1745 39.049 36.8732 38.1525 36.8732Z" fill="white"/>
<path d="M15.5949 21.7344H7.53696C6.68812 21.7344 6 22.396 6 23.212C6 24.0281 6.68812 24.6897 7.53696 24.6897H9.97926V35.3476C9.97926 36.1637 10.6674 36.8252 11.5162 36.8252H11.664C12.5128 36.8252 13.201 36.1635 13.201 35.3476V24.6897H15.5949C16.4437 24.6897 17.1319 24.0281 17.1319 23.212C17.132 22.396 16.4438 21.7344 15.5949 21.7344Z" fill="white"/>
<path d="M26.4107 30.1266C26.4107 31.8191 26.4134 33.4729 26.4097 35.1265C26.4073 36.2257 25.8076 36.8313 24.7402 36.8246C23.6936 36.818 23.1224 36.2443 23.1205 35.1525C23.1139 31.229 23.1145 27.3055 23.1201 23.3823C23.1217 22.2847 23.7418 21.6323 24.7535 21.6265C25.8375 21.6203 26.408 22.2278 26.4102 23.3979C26.4125 24.7739 26.4107 26.1498 26.4107 27.7129C26.9762 27.1413 27.4354 26.681 27.8904 26.2166C29.2216 24.8582 30.5472 23.4947 31.8832 22.1405C32.3871 21.6295 32.9977 21.4818 33.6921 21.7395C34.309 21.9684 34.6442 22.4114 34.688 23.0397C34.7318 23.6715 34.3383 24.1171 33.9152 24.524C32.7922 25.6042 31.6587 26.6744 30.5191 27.7385C29.469 28.7191 29.463 28.7134 30.4958 29.7497C31.9154 31.1739 33.3351 32.5979 34.7546 34.0221C35.0781 34.3467 35.3737 34.6899 35.4276 35.1585C35.498 35.7704 35.3584 36.2995 34.7498 36.6245C34.1438 36.9482 33.2674 36.9214 32.7646 36.4667C32.0429 35.8137 31.3697 35.1099 30.693 34.4125C29.399 33.0789 28.1185 31.7331 26.8275 30.3967C26.7293 30.2954 26.6611 30.1439 26.4107 30.1266Z" fill="white"/>
<path d="M19.4257 19.6222C17.7894 19.6222 16.4628 18.3469 16.4628 16.7737C16.4628 16.5146 16.4994 16.2641 16.5668 16.0256H22.2846C22.3519 16.2641 22.3886 16.5146 22.3886 16.7737C22.3887 18.3469 21.0621 19.6222 19.4257 19.6222ZM19.4257 12.873C17.3148 12.873 15.6035 14.5183 15.6035 16.5478C15.6035 18.5773 17.3148 20.2225 19.4257 20.2225C21.5367 20.2225 23.248 18.5773 23.248 16.5478C23.248 14.5183 21.5367 12.873 19.4257 12.873Z" fill="white"/>
<path d="M38.1781 19.6222C36.5418 19.6222 35.2153 18.3469 35.2153 16.7737C35.2153 16.5146 35.2519 16.2641 35.3193 16.0256H41.0369C41.1043 16.2641 41.1409 16.5146 41.1409 16.7737C41.1409 18.3469 39.8145 19.6222 38.1781 19.6222ZM38.1781 12.873C36.0672 12.873 34.356 14.5183 34.356 16.5478C34.356 18.5773 36.0672 20.2225 38.1781 20.2225C40.2891 20.2225 42.0002 18.5773 42.0002 16.5478C42.0003 14.5183 40.2891 12.873 38.1781 12.873Z" fill="white"/>
</svg>
