<svg width="48" height="49" viewBox="0 0 48 49" fill="none" xmlns="http://www.w3.org/2000/svg">
<rect y="0.873047" width="48" height="48" rx="24" fill="black"/>
<path fill-rule="evenodd" clip-rule="evenodd" d="M29.5353 8.87305C30.0471 13.273 32.6644 16.3775 36.8986 16.6513V20.8247L36.8713 20.8272V17.2822C32.637 17.0086 30.2026 14.3845 29.691 9.98456L25.2055 9.98446V28.4955C25.8528 36.8276 19.4071 37.0751 16.9415 33.916C19.8335 35.7378 24.5293 34.5536 23.9724 27.3841V8.87305H29.5354H29.5353ZM17.4836 39.5596C14.9491 39.0344 12.6445 37.5092 11.2911 35.279C8.00319 29.861 10.967 21.0306 20.5033 20.1218V25.3391L20.4877 25.3417V21.4274C11.6465 22.8456 10.7588 32.4114 13.2073 36.3905C14.1515 37.925 15.7016 39.0043 17.4835 39.5596H17.4836Z" fill="#26F4EE"/>
<path fill-rule="evenodd" clip-rule="evenodd" d="M30.8197 9.98524C31.1538 12.8576 32.3074 15.3024 34.246 16.7303C31.6228 15.7124 30.0855 13.3765 29.6909 9.98495L30.8197 9.98524ZM36.8711 17.9019C37.2319 17.9791 37.6082 18.0313 38 18.0565V23.0035C35.5437 23.2471 33.3943 22.4327 30.8895 20.9156L31.274 29.3879C31.274 32.1201 31.2841 33.3688 29.8285 35.8822C26.5631 41.5208 20.6853 41.9665 16.7107 39.2808C21.908 41.441 29.776 38.819 29.7607 29.3879V20.1409C32.2654 21.6581 34.4148 22.4724 36.8711 22.2288V17.9019ZM20.4876 21.4777C21.0013 21.37 21.5406 21.2871 22.1077 21.2331V26.4503C20.0426 26.7929 18.731 27.4316 18.1177 28.613C16.186 32.3335 18.6731 35.2843 21.4553 35.7279C18.2212 36.2691 14.4287 32.9678 16.6897 28.613C17.3029 27.4318 18.4225 26.7929 20.4876 26.4503V21.4777Z" fill="#FB2C53"/>
<path fill-rule="evenodd" clip-rule="evenodd" d="M29.6907 9.98447C30.2025 14.3844 32.6369 17.0084 36.871 17.2821V22.2289C34.4148 22.4726 32.2653 21.6582 29.7606 20.141V29.388C29.7802 41.4571 16.8899 42.3754 13.2071 36.3903C10.7587 32.4111 11.6463 22.8454 20.4875 21.4272V26.4503C18.4224 26.7929 17.3029 27.4318 16.6896 28.613C12.8998 35.9126 26.1186 40.2555 25.2052 28.4954V9.98438L29.6906 9.98447H29.6907Z" fill="white"/>
</svg>
