<svg width="166" height="44" viewBox="0 0 166 44" fill="none" xmlns="http://www.w3.org/2000/svg">
<path fill-rule="evenodd" clip-rule="evenodd" d="M25.5 22.3726C25.5 22.0964 25.7239 21.8726 26 21.8726H37.7929L34.6464 18.7261C34.4512 18.5309 34.4512 18.2143 34.6464 18.019C34.8417 17.8237 35.1583 17.8237 35.3536 18.019L39.3536 22.019C39.5488 22.2143 39.5488 22.5308 39.3536 22.7261L35.3536 26.7261C35.1583 26.9214 34.8417 26.9214 34.6464 26.7261C34.4512 26.5308 34.4512 26.2143 34.6464 26.019L37.7929 22.8726H26C25.7239 22.8726 25.5 22.6487 25.5 22.3726Z" fill="#EA262A"/>
<path d="M50.8523 15.7816L54.2273 21.2277H54.3295L57.7045 15.7816H59.571L55.4545 22.3271L59.571 28.8726H57.7045L54.3295 23.5288H54.2273L50.8523 28.8726H48.9858L53.2045 22.3271L48.9858 15.7816H50.8523ZM64.8562 29.0771C63.9102 29.0771 63.0941 28.8683 62.4081 28.4507C61.7262 28.0288 61.2 27.4407 60.8292 26.6865C60.4628 25.928 60.2795 25.0459 60.2795 24.0402C60.2795 23.0345 60.4628 22.1481 60.8292 21.3811C61.2 20.6098 61.7156 20.0089 62.3761 19.5785C63.0409 19.1439 63.8164 18.9265 64.7028 18.9265C65.2142 18.9265 65.7191 19.0118 66.2177 19.1822C66.7163 19.3527 67.1701 19.6297 67.5792 20.0132C67.9883 20.3924 68.3143 20.8953 68.5572 21.5217C68.8001 22.1481 68.9216 22.9194 68.9216 23.8356V24.4748H61.3534V23.1709H67.3875C67.3875 22.6169 67.2767 22.1226 67.0551 21.6879C66.8378 21.2532 66.5267 20.9102 66.1218 20.6588C65.7213 20.4074 65.2483 20.2816 64.7028 20.2816C64.102 20.2816 63.5821 20.4308 63.1432 20.7291C62.7085 21.0231 62.374 21.4066 62.1396 21.8797C61.9052 22.3527 61.788 22.8598 61.788 23.401V24.2703C61.788 25.0118 61.9159 25.6403 62.1716 26.1559C62.4315 26.6673 62.7916 27.0572 63.2518 27.3257C63.712 27.5899 64.2468 27.722 64.8562 27.722C65.2525 27.722 65.6105 27.6666 65.9301 27.5558C66.2539 27.4407 66.5331 27.2703 66.7674 27.0444C67.0018 26.8143 67.1829 26.5288 67.3108 26.1879L68.7682 26.597C68.6147 27.0913 68.3569 27.526 67.9947 27.901C67.6325 28.2717 67.1851 28.5615 66.6524 28.7703C66.1197 28.9748 65.521 29.0771 64.8562 29.0771ZM71.0363 28.8726V19.0544H72.4937V20.5885H72.6215C72.8261 20.0643 73.1563 19.6574 73.6123 19.3676C74.0683 19.0736 74.6159 18.9265 75.2551 18.9265C75.9028 18.9265 76.4418 19.0736 76.8722 19.3676C77.3069 19.6574 77.6457 20.0643 77.8886 20.5885H77.9909C78.2423 20.0814 78.6194 19.6787 79.1222 19.3804C79.6251 19.0778 80.2281 18.9265 80.9312 18.9265C81.809 18.9265 82.5271 19.2014 83.0853 19.7511C83.6436 20.2966 83.9227 21.1467 83.9227 22.3015V28.8726H82.4141V22.3015C82.4141 21.5771 82.216 21.0593 81.8197 20.7483C81.4234 20.4372 80.9568 20.2816 80.4198 20.2816C79.7295 20.2816 79.1947 20.4905 78.8154 20.9081C78.4362 21.3214 78.2465 21.8456 78.2465 22.4805V28.8726H76.7124V22.1481C76.7124 21.5899 76.5313 21.1403 76.1691 20.7994C75.8069 20.4542 75.3403 20.2816 74.7693 20.2816C74.3772 20.2816 74.0107 20.3861 73.6698 20.5949C73.3332 20.8037 73.0605 21.0934 72.8516 21.4642C72.6471 21.8307 72.5448 22.2547 72.5448 22.7362V28.8726H71.0363ZM95.6532 19.0544V20.3328H90.5652V19.0544H95.6532ZM92.0481 16.7021H93.5566V26.0601C93.5566 26.4862 93.6184 26.8058 93.742 27.0189C93.8698 27.2277 94.0318 27.3683 94.2278 27.4407C94.4281 27.5089 94.639 27.543 94.8606 27.543C95.0268 27.543 95.1632 27.5345 95.2697 27.5174C95.3762 27.4961 95.4615 27.4791 95.5254 27.4663L95.8322 28.8214C95.7299 28.8598 95.5872 28.8981 95.4039 28.9365C95.2207 28.9791 94.9885 29.0004 94.7072 29.0004C94.2811 29.0004 93.8635 28.9088 93.4544 28.7255C93.0495 28.5423 92.7129 28.2632 92.4444 27.8882C92.1802 27.5132 92.0481 27.0402 92.0481 26.4691V16.7021ZM99.4619 22.9663V28.8726H97.9533V15.7816H99.4619V20.5885H99.5897C99.8198 20.0814 100.165 19.6787 100.625 19.3804C101.09 19.0778 101.708 18.9265 102.479 18.9265C103.148 18.9265 103.734 19.0608 104.237 19.3292C104.74 19.5934 105.129 20.0004 105.406 20.5501C105.688 21.0956 105.828 21.7902 105.828 22.6339V28.8726H104.32V22.7362C104.32 21.9564 104.117 21.3534 103.713 20.9272C103.312 20.4968 102.756 20.2816 102.044 20.2816C101.55 20.2816 101.107 20.3861 100.715 20.5949C100.327 20.8037 100.02 21.1084 99.7942 21.5089C99.5727 21.9095 99.4619 22.3953 99.4619 22.9663ZM112.525 29.0771C111.579 29.0771 110.763 28.8683 110.076 28.4507C109.395 28.0288 108.868 27.4407 108.498 26.6865C108.131 25.928 107.948 25.0459 107.948 24.0402C107.948 23.0345 108.131 22.1481 108.498 21.3811C108.868 20.6098 109.384 20.0089 110.044 19.5785C110.709 19.1439 111.485 18.9265 112.371 18.9265C112.883 18.9265 113.388 19.0118 113.886 19.1822C114.385 19.3527 114.838 19.6297 115.248 20.0132C115.657 20.3924 115.983 20.8953 116.226 21.5217C116.468 22.1481 116.59 22.9194 116.59 23.8356V24.4748H109.022V23.1709H115.056C115.056 22.6169 114.945 22.1226 114.723 21.6879C114.506 21.2532 114.195 20.9102 113.79 20.6588C113.39 20.4074 112.917 20.2816 112.371 20.2816C111.77 20.2816 111.25 20.4308 110.812 20.7291C110.377 21.0231 110.042 21.4066 109.808 21.8797C109.574 22.3527 109.456 22.8598 109.456 23.401V24.2703C109.456 25.0118 109.584 25.6403 109.84 26.1559C110.1 26.6673 110.46 27.0572 110.92 27.3257C111.38 27.5899 111.915 27.722 112.525 27.722C112.921 27.722 113.279 27.6666 113.598 27.5558C113.922 27.4407 114.201 27.2703 114.436 27.0444C114.67 26.8143 114.851 26.5288 114.979 26.1879L116.437 26.597C116.283 27.0913 116.025 27.526 115.663 27.901C115.301 28.2717 114.853 28.5615 114.321 28.7703C113.788 28.9748 113.189 29.0771 112.525 29.0771ZM113.624 17.8782L112.294 16.0885L110.965 17.8782H109.533V17.776L111.604 15.1169H112.985L115.056 17.776V17.8782H113.624ZM118.705 28.8726V19.0544H120.162V20.5885H120.29C120.494 20.0643 120.825 19.6574 121.281 19.3676C121.737 19.0736 122.284 18.9265 122.923 18.9265C123.571 18.9265 124.11 19.0736 124.541 19.3676C124.975 19.6574 125.314 20.0643 125.557 20.5885H125.659C125.911 20.0814 126.288 19.6787 126.791 19.3804C127.293 19.0778 127.896 18.9265 128.6 18.9265C129.477 18.9265 130.195 19.2014 130.754 19.7511C131.312 20.2966 131.591 21.1467 131.591 22.3015V28.8726H130.083V22.3015C130.083 21.5771 129.884 21.0593 129.488 20.7483C129.092 20.4372 128.625 20.2816 128.088 20.2816C127.398 20.2816 126.863 20.4905 126.484 20.9081C126.105 21.3214 125.915 21.8456 125.915 22.4805V28.8726H124.381V22.1481C124.381 21.5899 124.2 21.1403 123.837 20.7994C123.475 20.4542 123.009 20.2816 122.438 20.2816C122.046 20.2816 121.679 20.3861 121.338 20.5949C121.002 20.8037 120.729 21.0934 120.52 21.4642C120.315 21.8307 120.213 22.2547 120.213 22.7362V28.8726H118.705Z" fill="#EA262A"/>
</svg>
