<svg width="226" height="50" viewBox="0 0 226 50" fill="none" xmlns="http://www.w3.org/2000/svg">
<path d="M12.8529 31.2121V48.8661H6.54836V31.2121H0V25.644H19.4013V31.2121H12.8529Z" fill="#14A64E"/>
<path d="M28.8759 31.9966V36.8113C27.8772 36.3965 26.9137 36.331 25.9849 36.6148C24.9862 36.9423 24.4871 37.5536 24.4871 38.449V48.8645H18.6006V38.187C18.6006 35.9597 19.3086 34.2783 20.7253 33.143C21.9793 32.0949 23.686 31.5708 25.8456 31.5708C26.6815 31.5708 27.6917 31.7128 28.8759 31.9966Z" fill="#14A64E"/>
<path d="M49.4957 48.5703C48.4508 48.9851 47.3361 49.1927 46.1519 49.1927C44.4103 49.1927 42.9936 48.6686 41.9024 47.6205C40.7181 46.4631 40.126 44.8475 40.126 42.773V28.0668H45.6294L45.9429 31.8989H49.0429V36.5826H45.9429V42.4455C45.9429 43.7556 46.6509 44.4107 48.0676 44.4107C48.5087 44.4107 48.9847 44.3342 49.4957 44.1814V48.5703Z" fill="#14A64E"/>
<path d="M37.118 32.5883H31.0991V48.865H37.118V32.5883Z" fill="#14A64E"/>
<path d="M57.8215 31.897C58.5412 31.6787 59.3306 31.5694 60.19 31.5694C62.1172 31.5694 63.6615 32.1045 64.8226 33.1743C66.0766 34.3097 66.7035 35.8601 66.7035 37.8253V48.8632H60.8518V37.7925C60.8518 36.8755 60.2711 36.4169 59.1102 36.4169C58.5992 36.4169 58.1698 36.5152 57.8215 36.7117V48.8632H51.9697V25.6738H57.8215V31.897Z" fill="#14A64E"/>
<path d="M84.4334 47.8162C82.4594 48.7333 80.2884 49.1918 77.9198 49.1918C75.5279 49.1918 73.6355 48.7333 72.2423 47.8162C70.5703 46.7243 69.7344 45.0539 69.7344 42.8049V31.8981H75.5861V42.7722C75.5861 43.8203 76.2014 44.3443 77.4322 44.3443C77.8268 44.3443 78.1985 44.2788 78.5468 44.1478V31.8981H84.4334V47.8162Z" fill="#14A64E"/>
<path d="M101.709 44.2463C101.128 45.96 100.095 47.2507 98.6089 48.1183C97.4246 48.8342 96.1124 49.1921 94.6729 49.1921C92.6293 49.1921 90.9459 48.7335 89.6223 47.8164C88.0663 46.7466 87.2886 45.1852 87.2886 43.1327V37.7939C87.2886 35.807 88.0663 34.2456 89.6223 33.1102C90.9922 32.0838 92.6758 31.5708 94.6729 31.5708C98.2023 31.5708 100.432 33.1212 101.361 36.2218L96.4145 37.6629C96.2055 36.7021 95.6017 36.2218 94.6032 36.2218C93.5583 36.2218 93.0358 36.7039 93.0358 37.6684V43.127C93.0358 44.0915 93.5814 44.5739 94.6729 44.5739C95.6713 44.5739 96.3214 44.1043 96.6235 43.1655L101.709 44.2463Z" fill="#14A64E"/>
<path d="M113.063 48.5703C112.018 48.9851 110.903 49.1927 109.719 49.1927C107.977 49.1927 106.56 48.6686 105.469 47.6205C104.285 46.4631 103.693 44.8475 103.693 42.773V28.0668H109.196L109.51 31.8989H112.61V36.5826H109.51V42.4455C109.51 43.7556 110.218 44.4107 111.635 44.4107C112.076 44.4107 112.552 44.3342 113.063 44.1814V48.5703Z" fill="#14A64E"/>
<path d="M125.638 31.9966V36.8113C124.639 36.3965 123.675 36.331 122.747 36.6148C121.748 36.9423 121.249 37.5536 121.249 38.449V48.8645H115.362V38.187C115.362 35.9597 116.07 34.2783 117.487 33.143C118.741 32.0949 120.448 31.5708 122.607 31.5708C123.443 31.5708 124.453 31.7128 125.638 31.9966Z" fill="#14A64E"/>
<path d="M132.606 42.969C132.606 43.5803 132.861 44.0608 133.372 44.4101C133.86 44.7376 134.452 44.9014 135.148 44.9014C136.309 44.9014 137.227 44.5194 137.9 43.755L141.174 46.2443C139.688 48.2095 137.54 49.1921 134.731 49.1921C132.733 49.1921 131.027 48.679 129.61 47.6527C128.031 46.4953 127.242 44.9341 127.242 42.969V37.6629C127.242 35.654 128.019 34.1146 129.575 33.0447C130.945 32.0621 132.641 31.5708 134.661 31.5708C136.635 31.5708 138.26 32.0731 139.537 33.0775C140.977 34.2348 141.697 35.796 141.697 37.7612V42.3466H132.606V42.969ZM136.611 37.4991C136.611 36.5165 135.961 36.0252 134.661 36.0252C133.337 36.0252 132.675 36.5493 132.675 37.5974V38.711H136.611V37.4991Z" fill="#14A64E"/>
<path d="M150.265 31.9631C151.031 31.701 151.739 31.57 152.389 31.57C154.247 31.57 155.803 32.0613 157.057 33.0439C158.45 34.1138 159.147 35.6314 159.147 37.5966V43.0009C159.147 47.1279 156.685 49.1913 151.762 49.1913C149.37 49.1913 146.897 48.7218 144.343 47.7829V25.6744H150.265V31.9631ZM150.265 44.7041C150.613 44.8351 150.996 44.9006 151.414 44.9006C152.691 44.9006 153.33 44.3983 153.33 43.394V37.6949C153.33 36.6468 152.714 36.1227 151.484 36.1227C151.159 36.1227 150.752 36.232 150.265 36.4503V44.7041Z" fill="#F59322"/>
<path d="M161.585 37.8273C161.585 35.8403 162.352 34.2789 163.884 33.1436C165.231 32.1392 166.915 31.6152 168.935 31.5714C170.955 31.6152 172.639 32.1392 173.986 33.1436C175.541 34.2789 176.319 35.8403 176.319 37.8273V43.1988C176.319 45.0768 175.553 46.5724 174.02 47.686C172.65 48.6904 170.955 49.1927 168.935 49.1927C166.891 49.1489 165.208 48.6359 163.884 47.6533C162.352 46.5614 161.585 45.0768 161.585 43.1988V37.8273ZM167.89 36.8431C167.518 37.0609 167.333 37.3654 167.333 37.7566V43.2696C167.333 43.6393 167.507 43.9438 167.855 44.183C168.18 44.4222 168.54 44.5417 168.935 44.5417C169.33 44.5417 169.69 44.4222 170.015 44.183C170.363 43.9438 170.537 43.6393 170.537 43.2696V37.7566C170.537 37.3654 170.363 37.0609 170.015 36.8431C169.713 36.6259 169.353 36.5172 168.935 36.5172C168.54 36.5172 168.192 36.6259 167.89 36.8431Z" fill="#F59322"/>
<path d="M178.757 37.8273C178.757 35.8403 179.523 34.2789 181.056 33.1436C182.402 32.1392 184.086 31.6152 186.106 31.5714C188.127 31.6152 189.81 32.1392 191.157 33.1436C192.713 34.2789 193.491 35.8403 193.491 37.8273V43.1988C193.491 45.0768 192.724 46.5724 191.192 47.686C189.822 48.6904 188.127 49.1927 186.106 49.1927C184.063 49.1489 182.379 48.6359 181.056 47.6533C179.523 46.5614 178.757 45.0768 178.757 43.1988V37.8273ZM185.061 36.8431C184.69 37.0609 184.504 37.3654 184.504 37.7566V43.2696C184.504 43.6393 184.678 43.9438 185.027 44.183C185.351 44.4222 185.711 44.5417 186.106 44.5417C186.501 44.5417 186.861 44.4222 187.186 44.183C187.534 43.9438 187.709 43.6393 187.709 43.2696V37.7566C187.709 37.3654 187.534 37.0609 187.186 36.8431C186.884 36.6259 186.524 36.5172 186.106 36.5172C185.711 36.5172 185.363 36.6259 185.061 36.8431Z" fill="#F59322"/>
<path d="M205.856 31.8976H212.474L205.926 40.1186L212.439 48.8638H205.543L201.99 43.4267V48.8638H196.382V25.6744H201.99V37.1708L205.856 31.8976Z" fill="#F59322"/>
<path d="M215.331 43.1661C216.631 44.1049 217.897 44.52 219.128 44.4107C219.801 44.3669 220.114 44.0942 220.068 43.5919C220.045 43.0896 219.662 42.7948 218.919 42.7075C214.971 42.2052 212.997 40.3055 212.997 37.0085C212.997 35.6328 213.531 34.4099 214.6 33.3401C215.784 32.161 217.351 31.5714 219.302 31.5714C221.624 31.5714 223.702 32.303 225.537 33.7659L222.681 37.1067C221.287 36.4954 220.231 36.2441 219.511 36.3534C219.255 36.3972 219.058 36.5499 218.919 36.8119C218.779 37.0957 218.814 37.3577 219.023 37.598C219.348 37.9038 219.801 38.1221 220.382 38.2531C224.027 39.1264 225.85 40.8296 225.85 43.3626C225.85 45.175 225.165 46.6269 223.795 47.7188C222.588 48.7014 221.044 49.1927 219.163 49.1927C216.539 49.1927 214.391 48.2756 212.719 46.4414L215.331 43.1661Z" fill="#FF8717"/>
<path fill-rule="evenodd" clip-rule="evenodd" d="M7.78271 0C7.78271 0 8.79739 4.19707 15.1622 5.09643C21.5269 5.99578 23.3949 6.6645 24.5017 8.78614V25.6433C24.5017 25.6433 24.1671 23.3608 14.0783 22.2765C9.14336 21.7461 7.82877 17.6644 7.82877 17.6644L7.78271 0Z" fill="#14A64E"/>
<path fill-rule="evenodd" clip-rule="evenodd" d="M26.541 16.3678C26.541 16.3678 27.1829 19.023 31.2095 19.592C35.236 20.1609 36.4178 20.584 37.118 21.9262V32.5906C37.118 32.5906 36.9063 31.1466 30.5238 30.4607C27.4018 30.1251 26.5702 27.5429 26.5702 27.5429L26.541 16.3678Z" fill="#F59322"/>
</svg>
